<?xml version="1.0" encoding="UTF-8" standalone="no"?>
<svg
   viewBox="0 0 220 91.031266"
   version="1.1"
   id="svg42"
   sodipodi:docname="logo.svg"
   width="220"
   height="91.031265"
   inkscape:version="1.1.1 (3bf5ae0d25, 2021-09-20)"
   xmlns:inkscape="http://www.inkscape.org/namespaces/inkscape"
   xmlns:sodipodi="http://sodipodi.sourceforge.net/DTD/sodipodi-0.dtd"
   xmlns="http://www.w3.org/2000/svg"
   xmlns:svg="http://www.w3.org/2000/svg"
   xmlns:rdf="http://www.w3.org/1999/02/22-rdf-syntax-ns#"
   xmlns:cc="http://creativecommons.org/ns#"
   xmlns:dc="http://purl.org/dc/elements/1.1/">
  <defs
     id="defs46" />
  <sodipodi:namedview
     id="namedview44"
     pagecolor="#ffffff"
     bordercolor="#666666"
     borderopacity="1.0"
     inkscape:pageshadow="2"
     inkscape:pageopacity="0.0"
     inkscape:pagecheckerboard="0"
     showgrid="false"
     fit-margin-top="0"
     fit-margin-left="0"
     fit-margin-right="0"
     fit-margin-bottom="0"
     inkscape:zoom="0.43031334"
     inkscape:cx="-25.562768"
     inkscape:cy="626.28782"
     inkscape:window-width="1920"
     inkscape:window-height="1019"
     inkscape:window-x="0"
     inkscape:window-y="30"
     inkscape:window-maximized="1"
     inkscape:current-layer="svg42" />
  <title
     id="title2">logo</title>
  <path
     d="m 4.8782071,41.669845 c 0.3858533,-0.900324 0.926975,-2.039344 1.1900041,-2.530641 0.2630292,-0.491298 0.4878206,-1.110053 0.4889794,-1.375399 0.00116,-0.265347 0.2039344,-1.050959 0.4519002,-1.743873 l 0.449583,-1.258368 -0.8261666,0.203935 A 3.9859926,3.9859926 0 0 0 5.232775,35.666523 c -0.5527089,0.480869 -0.5666135,0.463488 -0.3765836,-0.543438 0.2236327,-1.184211 1.3232569,-2.215471 2.9072254,-2.719514 0.9049593,-0.289679 3.6152022,-2.624497 3.6152022,-3.113477 0,-0.09154 -0.428726,-0.122824 -0.953625,-0.06952 -0.5248998,0.0533 -1.0034507,-0.04982 -1.0648627,-0.231744 -0.1459985,-0.432202 2.2096757,-1.308193 3.5352517,-1.313987 1.723013,-0.0069 1.866695,-0.258394 1.176099,-2.055567 -0.690596,-1.797173 -0.579359,-2.180708 0.396282,-1.298923 0.681326,0.616438 2.64072,1.69984 2.748481,1.521397 0.03244,-0.0533 0.426408,-0.639612 0.875991,-1.303559 0.553867,-0.818055 0.816897,-1.595556 0.816897,-2.414769 0,-0.772866 0.22595,-1.49243 0.624549,-1.992997 0.823849,-1.034736 1.183051,-0.990704 1.183051,0.142522 v 0.926976 l 1.129752,-1.008086 c 0.621073,-0.553867 1.432176,-1.216654 1.801807,-1.471572 0.369632,-0.254918 0.866722,-0.926976 1.105419,-1.483161 0.463486,-1.083402 1.687093,-2.352199 2.842336,-2.939669 0.973324,-0.495931 1.035894,-0.304743 0.3256,1.004609 -0.337187,0.621073 -0.550392,1.192322 -0.472757,1.268797 0.309378,0.305902 2.334818,-0.495932 3.415903,-1.352225 a 9.4736847,9.4736847 0 0 1 4.808683,-1.888712 c 1.390462,-0.115871 1.580492,0.371949 0.410187,1.054435 -1.3024,0.76012 -1.1228,1.091513 0.593263,1.091513 1.340638,0 1.52024,-0.07763 1.684778,-0.727675 0.101967,-0.399759 0.09617,-0.86904 -0.01159,-1.042847 -0.107761,-0.173808 0.06373,-0.314013 0.420615,-0.314013 0.356885,0 0.887579,0.405551 1.290813,1.013878 l 0.672057,1.013879 1.926949,-0.716088 c 1.059069,-0.393964 2.173757,-0.717247 2.475024,-0.717247 0.878308,0 0.962895,-0.514471 0.243331,-1.477366 -0.368473,-0.492456 -0.608328,-0.957101 -0.533011,-1.032419 0.303584,-0.298949 2.492404,0.421774 3.680091,1.213179 0.695231,0.463488 1.969821,0.98607 2.842337,1.158719 1.454192,0.305902 1.585127,0.288521 1.585127,-0.216681 0,-0.522581 0.03824,-0.524899 0.828484,-0.04171 a 15.832734,15.832734 0 0 1 1.732285,1.295448 c 1.054433,0.918864 3.987151,2.974431 4.244387,2.974431 0.09617,0 0.08459,-0.536486 -0.02781,-1.191163 -0.231744,-1.347589 0.0591,-1.506334 0.964054,-0.520264 0.975642,1.061386 1.296606,1.87133 1.296606,3.318571 0,0.741579 0.231744,1.821505 0.50752,2.400865 0.495931,1.025466 0.550391,1.050958 2.26066,1.050958 h 1.750824 l -1.205067,1.07645 c -0.663946,0.592105 -1.206227,1.19348 -1.206227,1.336002 0,0.142522 0.508677,0.725357 1.129751,1.296606 0.829642,0.762437 1.409002,1.042847 2.184185,1.052117 0.579359,0.0081 1.66392,0.310537 2.408976,0.672057 l 1.355701,0.656994 -1.580492,0.09617 c -0.870198,0.05214 -1.581651,0.163379 -1.581651,0.246806 0,0.463488 2.317437,2.793671 2.789036,2.793671 1.252574,0 2.772813,1.21202 4.370686,3.485426 0.621074,0.881785 0.891056,1.87249 0.510996,1.87249 -0.08806,0 -0.833119,-0.337187 -1.655809,-0.749691 -0.822691,-0.412504 -1.494748,-0.703343 -1.494748,-0.647724 0,0.695232 1.174941,3.159826 1.707952,3.572329 0.734628,0.572408 2.931559,4.055516 2.700974,4.28726 -0.07416,0.07416 -0.548075,-0.07648 -1.052118,-0.334869 -1.418271,-0.7242 -1.549206,-0.616439 -1.549206,1.274591 0,1.362652 0.130935,1.853949 0.602533,2.2792 0.822691,0.735785 0.76012,0.959419 -0.336028,1.198114 -0.885262,0.192348 -0.926975,0.265347 -0.770548,1.288496 0.407869,2.62334 0.849341,4.947729 0.960578,5.057807 0.06605,0.06489 0.600217,-0.161062 1.187686,-0.504043 0.587471,-0.342981 1.067181,-0.508677 1.067181,-0.37079 0,0.429885 -1.485478,3.592028 -2.085694,4.434417 -0.564296,0.794882 -1.066022,3.331317 -0.659311,3.331317 0.115872,0 0.373108,-0.158745 0.568931,-0.347616 0.195824,-0.188871 0.454218,-0.256077 0.573566,-0.137888 0.29779,0.294316 -0.800675,2.250232 -1.458827,2.597848 -0.42525,0.224791 -3.097256,3.87939 -3.517871,4.81216 -0.05562,0.122824 0.173808,0.222473 0.508678,0.222473 1.829617,0 0.308219,1.260686 -2.144788,1.776316 -0.702184,0.148316 -1.886395,0.463488 -2.631451,0.71377 -0.745056,0.250284 -1.72765,0.523742 -2.181867,0.619916 -0.610645,0.128617 -1.023149,0.55966 -1.585127,1.655809 -0.418298,0.811103 -0.731152,1.515604 -0.695232,1.557318 0.140205,0.166855 -0.758961,2.929241 -1.002292,3.078715 -0.14368,0.0869 -0.399757,-0.203934 -0.570089,-0.647724 -0.267664,-0.69523 -0.362679,-0.742738 -0.677851,-0.356884 -0.201617,0.246806 -0.987228,0.859768 -1.746189,1.362652 -0.758961,0.502884 -1.747348,1.390463 -2.201565,1.976775 -0.711454,0.926975 -2.169122,1.954758 -2.756592,1.954758 -0.104285,0 -0.09965,-0.402075 0.0093,-0.893372 0.220157,-0.989546 0.194665,-1.008086 -0.834277,-0.621073 a 12.085437,12.085437 0 0 1 -1.897982,0.456535 4.4031313,4.4031313 0 0 0 -2.085693,1.03126 c -0.952467,0.889895 -2.003425,1.514445 -2.549182,1.514445 -0.472757,0 -0.389329,-0.763595 0.130935,-1.190004 0.791405,-0.648882 0.504043,-0.811103 -1.731125,-0.969847 -2.582785,-0.185396 -3.218922,0.04867 -3.01267,1.107735 0.166856,0.862086 -0.115871,0.946673 -1.032418,0.311695 -0.567772,-0.392806 -0.78677,-0.392806 -1.913045,0 -0.695231,0.243331 -1.762411,0.453059 -2.363786,0.463488 -0.601375,0.01042 -1.34759,0.115871 -1.661603,0.241013 -0.522582,0.202776 -0.498249,0.275776 0.301267,0.886419 l 0.871357,0.663946 -1.355701,-0.186553 a 9.9336961,9.9336961 0 0 1 -2.55961,-0.784453 c -1.252575,-0.621073 -5.841101,-2.330183 -6.257082,-2.330183 -0.130935,0 -0.09849,0.259553 0.073,0.579359 0.507519,0.937404 0.387012,1.259527 -0.314013,0.840071 -1.640776,-0.980278 -6.229302,-8.046146 -7.202625,-11.088942 -0.551551,-1.724173 -1.622208,-2.50515 -3.468046,-2.523689 q -2.860876,-0.02781 -2.862035,-0.752009 c 0,-0.208568 0.482026,-0.463487 1.071815,-0.579359 l 1.070656,-0.19814 -1.672032,-1.799491 C 10.619657,65.654166 9.8722839,64.735302 9.8722839,64.593938 9.8722839,64.452574 9.4829544,64.246323 9.006721,64.14899 7.7912249,63.884802 6.9210271,62.858177 6.6892833,61.402826 6.4992536,60.233679 6.5270627,60.169949 7.1411837,60.328694 c 0.5897879,0.15295 0.6338192,0.08459 0.4484242,-0.688278 A 3.9871513,3.9871513 0 0 0 6.8074727,58.154937 C 6.019544,57.296326 4.9454116,54.467894 5.4065817,54.467894 c 0.193506,0 0.6002163,0.222475 0.9049594,0.493615 0.304743,0.27114 0.6025338,0.439154 0.6627871,0.371948 0.060253,-0.06721 0.1749665,-1.158718 0.2537594,-2.422881 0.1575858,-2.527165 0.2641879,-2.37769 -1.948965,-2.746163 -0.6813266,-0.115872 -1.1297508,-0.354568 -1.1297508,-0.607168 0,-0.252602 0.4472654,-0.493615 1.1297508,-0.606011 C 7.2107069,48.634905 7.1562471,48.71949 6.6973944,46.821509 6.4656506,45.870202 6.274462,44.679038 6.2686685,44.174996 6.2547638,42.981516 6.0183852,42.784533 5.2478372,43.317544 3.9605007,44.207439 3.901406,43.942093 4.878206,41.669845 Z m 1.3278917,-0.400916 c 0.3024256,-0.27114 0.7091359,-0.492456 0.9038006,-0.492456 0.4484241,0 0.4634875,0.791405 0.017381,1.062546 -0.2247915,0.137887 -0.2699815,0.811102 -0.1344114,2.026598 0.3140128,2.848131 0.7184056,4.086802 1.3012412,3.989469 0.8539757,-0.14368 0.7948811,0.863245 -0.06373,1.07645 -1.1390205,0.282728 -0.972165,0.865563 0.1772841,0.616438 0.9003244,-0.195823 0.935086,-0.169172 0.7473735,0.568931 -0.1506334,0.595582 0.091539,1.236353 1.0555932,2.780925 0.689438,1.106577 1.470414,2.380008 1.738077,2.83075 0.267665,0.450742 0.632662,0.763596 0.811104,0.695232 0.754326,-0.28041 1.055593,0.294314 0.604851,1.158718 -0.402075,0.765914 -0.390488,0.880626 0.133253,1.316305 0.52374,0.435678 1.903775,4.201514 3.742662,10.299851 0.444947,1.472732 0.989545,3.079875 1.213178,3.571172 0.223633,0.491297 0.63382,1.462303 0.91307,2.157534 0.347616,0.85861 0.695232,1.265321 1.074133,1.265321 0.378901,0 0.625708,0.28041 0.743897,0.818055 0.251442,1.144814 0.631502,1.848157 1.641905,3.0567 0.70566,0.840071 0.84123,0.911912 0.702183,0.371949 -0.125142,-0.48782 -0.04055,-0.66974 0.315172,-0.66974 0.267664,0 0.486662,0.185396 0.486662,0.412505 0,0.410186 0.88526,1.098465 1.878283,1.458826 0.347616,0.125142 0.628026,0 0.830801,-0.378901 0.266505,-0.493613 0.136729,-0.647723 -0.974482,-1.158718 -2.128567,-0.9768 -2.280359,-1.134386 -1.586286,-1.634953 0.568931,-0.411344 0.543439,-0.441471 -0.508678,-0.637295 -0.608327,-0.115872 -1.22129,-0.134411 -1.362653,-0.04867 -0.410187,0.250283 -2.682434,-4.690494 -3.996421,-8.690391 -0.665105,-2.023123 -1.208544,-3.849264 -1.208544,-4.055516 0,-0.206251 -0.202776,-0.762436 -0.450742,-1.231718 -0.247965,-0.469281 -0.450742,-1.086878 -0.451899,-1.373081 a 0.50288396,0.50288396 0 0 0 -0.475075,-0.521424 c -0.295474,0 -0.431044,-0.196982 -0.359203,-0.520265 0.115872,-0.55155 0.192347,-0.563137 1.535302,-0.249124 1.203909,0.28041 0.774024,-0.24449 -0.85977,-1.050958 -0.965213,-0.476233 -1.348748,-0.845864 -1.348748,-1.300083 0,-0.347615 -0.449583,-1.371922 -0.998816,-2.272247 -0.549232,-0.900325 -0.943197,-1.797172 -0.878309,-1.991837 0.06489,-0.194666 -0.151792,-0.35341 -0.486661,-0.35341 -0.673216,0 -1.809919,-0.957101 -1.326733,-1.115846 0.169173,-0.05562 -0.13557,-0.995339 -0.681327,-2.097281 C 9.0762451,47.840023 8.6266623,46.208547 8.471394,43.159958 8.2338566,38.464829 8.0542552,38.190213 6.559508,40.2284 q -1.5503658,2.114661 -0.3545679,1.042846 z m 1.3336853,-7.442451 c 1.3244156,-0.327918 1.4889536,0.168015 0.6118034,1.85395 -0.6141208,1.172624 -0.7357864,1.677825 -0.5040426,2.043981 0.6129622,0.959418 1.0208312,0.761277 1.0208312,-0.494774 0,-0.668581 0.1332527,-1.215496 0.2954733,-1.215496 0.3476157,0 1.5121276,-2.156375 1.5121276,-2.797147 0,-0.564296 0.67901,-0.993022 0.836595,-0.527217 0.231744,0.681327 0.66974,0 0.66974,-1.030101 0,-0.843548 0.101967,-1.023148 0.527217,-0.926976 0.28968,0.06605 0.933927,-0.169172 1.431017,-0.521422 2.101916,-1.493589 7.343961,-3.718329 8.77266,-3.722963 0.310537,0 0.926976,-0.19003 1.378875,-0.420615 0.892215,-0.463488 1.201592,-0.274617 1.580493,0.943196 0.273458,0.884103 0.498249,0.831961 1.22129,-0.282727 0.331393,-0.512154 0.805309,-1.030101 1.054434,-1.150608 0.249125,-0.120506 1.400891,-0.655835 2.560768,-1.188845 3.050907,-1.40205 5.353281,-3.091462 5.445978,-4.001056 0.100809,-0.926975 -0.10776,-0.926975 -1.205067,0 -0.482027,0.409028 -0.980276,0.743897 -1.108894,0.743897 -0.128618,0 -0.276934,0.301267 -0.330235,0.669739 -0.08227,0.57936 -0.327918,0.695232 -1.753141,0.844706 -0.910753,0.09617 -1.47505,0.195824 -1.254893,0.222475 0.679009,0.08227 0.196983,0.790245 -0.579359,0.848182 -0.399759,0.03013 -1.307035,0.264188 -2.013854,0.521424 -0.706817,0.257235 -2.605958,0.662787 -4.217735,0.901482 -3.348698,0.49709 -4.888636,0.942039 -5.389202,1.556159 -0.300108,0.368473 -0.521423,0.341823 -1.581651,-0.192347 -1.152925,-0.579359 -1.821506,-0.369631 -0.733469,0.231744 0.43452,0.241014 0.362679,0.411345 -0.560819,1.323257 -0.743899,0.735786 -1.183052,0.968689 -1.477367,0.784453 -0.63382,-0.395124 -1.172624,-0.320965 -0.994181,0.137887 0.0927,0.238696 -0.347615,0.802992 -1.063704,1.363812 -0.672057,0.526058 -1.222448,1.181893 -1.222448,1.457669 0,0.334869 -0.5978987,0.735786 -1.8076012,1.21086 C 6.8433941,33.72567 6.270987,34.139332 7.5339905,33.82416 Z m 0.5550262,24.225334 c 0.3568854,0.188871 0.5492327,0.508677 0.4530591,0.754325 -0.2943146,0.76012 0.1599032,2.147107 0.754326,2.300057 0.3140127,0.08111 0.5700896,0.311695 0.5700896,0.512154 0,0.25376 -0.3661552,0.31633 -1.2050676,0.205093 -0.6627871,-0.08806 -1.2050675,-0.07995 -1.2050675,0.01622 0,0.463488 1.384669,1.553843 1.969822,1.553843 0.4298846,0 0.9513081,0.415979 1.4982241,1.195797 0.82269,1.172624 2.491245,2.769338 3.634899,3.476156 0.559662,0.347616 0.556186,0.364997 -0.09849,0.555027 -0.654676,0.19003 -0.957102,0.723041 -0.411345,0.723041 0.775183,0 2.031233,-0.785612 1.903774,-1.190005 -0.264187,-0.838913 -0.99418,-1.425224 -1.585127,-1.274591 -0.512154,0.133253 -0.586311,-0.01042 -0.597898,-1.14829 l -0.01159,-1.298924 -0.454218,0.827325 c -0.495929,0.903803 -1.173779,0.799518 -0.926973,-0.14252 0.170332,-0.643089 -1.224765,-2.887527 -1.806442,-2.906067 -0.231744,-0.0069 -0.29895,-0.437996 -0.201617,-1.27459 0.106602,-0.926976 0.06257,-1.147131 -0.166856,-0.821531 -0.2433305,0.347615 -0.3939639,0.364996 -0.6743739,0.0869 -0.28041,-0.278092 -0.2792512,-0.454217 0,-0.779817 0.2549181,-0.303582 0.267664,-0.647722 0.047507,-1.222446 -0.172649,-0.433361 -0.3116953,-1.653492 -0.3116953,-2.696338 0,-1.84584 -0.4379957,-3.417062 -0.9524669,-3.417062 -0.1390462,0 -0.2526006,1.004609 -0.2526006,2.231692 0,2.047456 -0.050984,2.232852 -0.6129622,2.232852 -0.5167887,0 -0.5631374,0.09154 -0.2943146,0.588628 a 2.6650532,2.6650532 0 0 0 0.9374034,0.915389 z m 1.2328769,-14.29859 c 0.1436811,0 0.3476156,-0.231744 0.4414718,-0.521424 0.093856,-0.289679 0.505201,-1.251415 0.906118,-2.144789 0.662787,-1.479683 0.695231,-1.757776 0.376584,-3.12854 -0.193507,-0.825008 -0.420615,-1.702157 -0.505202,-1.947806 -0.249124,-0.721882 -1.0219897,2.128566 -0.8620865,3.181842 0.092697,0.609486 -0.010428,1.075291 -0.2896797,1.304717 -0.4739159,0.388171 -0.5330107,3.252524 -0.067206,3.252524 z m 0.9362448,3.27338 c 0.568931,0 1.274591,-2.049774 0.843546,-2.470389 -0.531851,-0.524899 -0.399757,-0.753166 0.798359,-1.377716 0.926974,-0.486662 1.010402,-0.592105 0.451899,-0.602533 -0.857452,-0.01738 -0.880626,-0.553868 -0.03708,-0.862087 0.653517,-0.238696 1.895663,-2.875941 1.587444,-3.368395 -0.08806,-0.140206 0.42525,-0.955944 1.14018,-1.813395 1.137862,-1.363813 2.054408,-2.695181 2.054408,-2.983701 0,-0.05098 -0.475075,-0.03824 -1.054434,0.02897 -1.151766,0.132094 -1.515604,-0.476234 -0.450742,-0.75085 0.544598,-0.141364 2.10771,-2.665053 2.10771,-3.40084 0,-0.159903 -0.397441,-0.0591 -0.881785,0.223633 -0.658153,0.384695 -1.123957,1.120481 -1.834252,2.896797 -0.522582,1.309352 -0.987228,2.725307 -1.032419,3.148238 -0.06836,0.6512 -0.249124,0.783295 -1.179576,0.860929 -1.123957,0.09502 -1.405525,0.603692 -0.829642,1.506335 0.201618,0.31517 0.369631,0.251441 0.776341,-0.297791 l 0.517948,-0.695232 -0.214363,0.743898 a 21.360981,21.360981 0 0 1 -0.903801,2.23285 c -2.035869,4.397339 -2.2015651,4.834176 -2.2270569,6.025339 -0.015063,0.607168 0.1158719,0.967529 0.3673139,0.967529 z m 0.150633,10.714673 c 0.404393,0 0.964054,-0.687121 0.957102,-1.174941 0,-0.253759 -0.27114,-0.79604 -0.595582,-1.206226 l -0.588629,-0.743898 -0.007,1.563112 c 0,0.858611 0.101968,1.561953 0.231744,1.561953 z m 1.172623,-22.052736 c 0.702184,0.31633 0.871357,0.294315 1.205068,-0.157586 0.594423,-0.801832 0.470439,-1.220131 -0.427567,-1.442604 -0.599058,-0.148316 -0.920022,-0.06257 -1.205067,0.322123 -0.541122,0.732311 -0.49825,0.860929 0.427566,1.274591 z m 0.147158,15.567387 c 0.811103,1.514445 1.206226,1.902616 2.560768,2.559609 1.631477,0.790247 2.101916,1.542256 0.962895,1.542256 -0.385852,0 -0.579359,0.145998 -0.486661,0.373107 0.969848,2.441421 1.574699,3.418221 2.317437,3.743821 1.52835,0.662787 4.27799,3.675456 3.798281,4.150531 -0.115873,0.115871 -0.904959,-0.15411 -1.751983,-0.600217 -0.847023,-0.446107 -1.578175,-0.771707 -1.622206,-0.723041 -0.08806,0.08806 1.951282,6.829488 2.085693,6.890901 0.03824,0.01738 0.646565,0.39744 1.349907,0.842389 1.210862,0.767071 1.709111,0.74969 0.918865,-0.03129 -0.280411,-0.278093 -0.209729,-0.356886 0.320965,-0.356886 0.973323,0 1.806443,0.482028 3.35449,1.943172 1.274591,1.199273 4.976698,3.060176 5.353281,2.688227 0.09154,-0.09038 0,-0.516788 -0.194664,-0.947832 -0.194665,-0.431043 -0.315172,-0.829642 -0.258395,-0.88526 0.24449,-0.242172 2.330184,1.516762 3.26527,2.754274 1.17494,1.552683 1.776316,1.902616 4.502781,2.617545 3.186477,0.835437 3.354491,0.747374 4.683541,-2.462277 0.483186,-1.167989 1.834252,-2.625656 2.145948,-2.317437 0.06952,0.06952 -0.08575,0.533011 -0.347617,1.031259 -0.726516,1.390462 -0.579359,1.451875 0.654677,0.288522 1.777475,-1.676667 3.601297,-2.848131 5.294186,-3.399681 0.857452,-0.280411 1.969822,-0.811104 2.463436,-1.173783 1.44724,-1.063703 3.411268,-1.950123 3.611726,-1.629159 0.09965,0.158746 0.02897,0.571249 -0.157585,0.915389 -0.331394,0.611803 -0.301267,0.621073 1.417113,0.412503 1.834252,-0.223632 2.195772,-0.463487 2.201566,-1.497064 0.0069,-0.968689 0.383536,-1.107735 0.975641,-0.361521 0.539963,0.679009 0.545757,0.680168 1.013879,0.08806 0.579359,-0.733469 2.835385,-4.50394 2.835385,-4.739159 0,-0.303585 -0.731152,-0.179602 -1.612937,0.275774 -0.843547,0.433361 -1.399732,0.373108 -1.399732,-0.151791 0,-0.549234 1.622206,-1.961712 3.244413,-2.823798 1.390462,-0.740422 1.823823,-1.174941 2.512101,-2.519055 0.457695,-0.893372 0.770549,-1.724174 0.695232,-1.845839 -0.07532,-0.121665 -0.833118,-0.139047 -1.68246,-0.0394 -1.957075,0.231744 -1.792537,-0.07648 0.935086,-1.746189 1.957077,-1.199275 2.085694,-1.342956 2.40666,-2.780926 0.27114,-1.198115 0.257235,-1.7543 -0.06837,-2.683592 -0.354568,-1.011563 -0.695231,-1.317464 -2.475024,-2.223582 -1.877124,-0.953626 -2.903748,-1.843521 -2.539911,-2.201566 0.07648,-0.07647 0.716088,-0.0336 1.420589,0.09386 0.980277,0.177284 1.280384,0.140206 1.280384,-0.16222 0,-0.216681 -0.889896,-1.559636 -1.976774,-2.9837 -1.086877,-1.424066 -2.237486,-3.09378 -2.556133,-3.707901 -0.318649,-0.614121 -0.731152,-1.205067 -0.913071,-1.320939 -0.42409,-0.259553 -2.093804,-2.536435 -2.093804,-2.856242 0,-0.134412 0.425249,-0.161062 0.944355,-0.05794 l 0.944355,0.186554 -0.218996,-1.728809 c -0.288522,-2.286152 -0.323284,-2.352199 -1.531827,-2.922288 -1.239829,-0.57936 -1.322098,-0.960578 -0.266506,-1.222449 0.42525,-0.105443 0.721882,-0.347615 0.656994,-0.537645 -0.09386,-0.28041 -3.863168,-2.013854 -4.378798,-2.013854 -0.07879,0 -0.06721,0.463488 0.02665,1.042848 0.115872,0.721881 0.05678,1.042847 -0.202775,1.042847 -0.390488,0 -1.717221,-1.3024 -2.873623,-2.821481 -0.695231,-0.907276 -4.848079,-3.048589 -4.848079,-2.497039 0,0.164538 0.133253,0.544598 0.295473,0.844706 0.579359,1.05907 -1.848157,-0.03592 -3.448347,-1.558476 -0.980276,-0.926976 -1.986044,-1.567748 -2.914178,-1.840047 -1.38351,-0.405551 -1.453034,-0.393964 -2.802941,0.451901 -0.763596,0.478551 -1.526032,1.236353 -1.698682,1.689412 -0.341821,0.893373 -1.725331,2.457643 -2.173756,2.457643 -0.15411,0 -0.208569,-0.267664 -0.122824,-0.595582 0.08575,-0.327917 0.09386,-0.595581 0.01506,-0.595581 -0.07879,0 -1.18537,0.626867 -2.457643,1.390462 -1.272273,0.763596 -2.923447,1.622207 -3.668504,1.896822 -1.064863,0.395124 -1.601349,0.865564 -2.499356,2.187662 q -1.716063,2.524849 -1.723015,0.681327 c -0.01159,-1.600191 -1.134386,-1.843522 -4.370687,-0.945514 -1.400891,0.38817 -1.57354,0.54228 -2.33366,2.075264 -0.936245,1.884077 -1.053275,2.499357 -0.369631,1.938537 1.201592,-0.984911 0.0197,2.128566 -1.638429,4.316228 -0.621073,0.818055 -1.303559,2.023123 -1.516762,2.678957 -0.213204,0.655835 -0.519107,1.353383 -0.67901,1.551525 -0.589787,0.735786 -0.06721,1.019673 0.73231,0.398599 0.589789,-0.463487 0.85977,-0.527217 1.025466,-0.260711 0.143682,0.231742 -0.447265,0.964053 -1.622206,2.01617 -1.27459,1.141338 -1.992996,2.056726 -2.317437,2.954733 -0.630343,1.764729 -0.614122,1.807601 0.589788,1.615254 0.855134,-0.136729 1.054434,-0.07416 1.054434,0.331393 0,0.446107 -0.617598,0.811103 -2.485452,1.458828 -0.695231,0.241013 -0.685961,0.269981 0.435678,2.349881 z m 0.273457,10.851402 c 0.347616,0.706817 0.739263,1.285019 0.874833,1.285019 0.405552,0 0.911912,-1.806443 0.719564,-2.565404 -0.208569,-0.819215 -0.490137,-0.891054 -1.018513,-0.261871 -0.206252,0.24449 -0.493614,0.446107 -0.639613,0.446107 -0.374267,0 -0.327917,-1.322098 0.07647,-2.201565 0.194665,-0.421774 0.237538,-0.971007 0.09965,-1.274591 -0.196982,-0.437996 -0.281568,-0.347615 -0.4519,0.501725 -0.375425,1.869014 -0.300109,2.76818 0.339504,4.07058 z m 1.15872,-28.339944 c 0.274615,0.168014 1.656967,-2.481976 1.425223,-2.71372 -0.06025,-0.0591 -0.463487,0.172649 -0.907277,0.513313 -0.792563,0.615279 -1.082243,1.858585 -0.51563,2.205041 z M 14.9776,65.632149 c 0.158744,-0.09617 0.212045,-0.371948 0.115871,-0.612961 -0.239854,-0.61528 -0.40671,-0.54228 -0.40671,0.176125 0,0.337187 0.129777,0.534169 0.287362,0.436836 z m 4.28726,-40.574855 a 1.3974149,1.3974149 0 0 1 0.84934,-0.358043 c 0.695232,0 2.371898,-1.950125 2.078742,-2.419406 -0.391648,-0.626867 -0.01159,-0.853975 1.429858,-0.853975 1.078767,0 1.334845,-0.0927 1.201592,-0.435679 -0.115872,-0.296632 0.300108,-0.68712 1.305876,-1.228241 0.811103,-0.435679 1.544572,-0.974483 1.631476,-1.195798 q 0.156427,-0.405552 1.01272,-0.231744 c 0.579359,0.115872 0.984911,0.01622 1.25721,-0.30706 0.272299,-0.323283 0.512153,-0.383537 0.758961,-0.180761 0.246807,0.202776 0.712612,0.195824 1.390463,0 0.565454,-0.159903 1.910727,-0.295473 2.988335,-0.300108 1.76357,-0.0093 3.012669,-0.420615 3.012669,-0.990705 0,-0.36152 -3.860851,-0.205092 -3.984834,0.159904 -0.0672,0.200458 -0.347616,0.266505 -0.640771,0.154109 -0.572408,-0.217839 -0.347616,-0.902641 0.593263,-1.83541 0.268823,-0.265347 0.428727,-0.543439 0.354568,-0.616439 -0.267663,-0.265346 -3.231666,1.355701 -3.549155,1.940855 a 1.2653209,1.2653209 0 0 1 -0.993022,0.608327 c -1.042847,0.01043 -3.142446,1.067179 -3.529457,1.779792 -0.259553,0.480868 -0.529535,0.601374 -1.052117,0.472757 -0.522582,-0.128618 -1.077608,0.130935 -2.206201,1.006927 -1.612936,1.260686 -1.98952,1.705634 -2.002266,2.368421 -0.01506,0.828484 -0.710295,0.634978 -0.907276,-0.2526 -0.115873,-0.49825 -0.326759,-0.981435 -0.47971,-1.075292 -0.358044,-0.217839 -0.347616,1.071815 0.0058,1.632635 0.185394,0.290839 0.08806,0.661629 -0.305903,1.158719 -0.643088,0.811103 -0.811103,1.593238 -0.218998,1.005768 z m 3.618678,48.383461 c 1.042847,0.493615 2.604799,1.19464 3.476156,1.560795 1.42986,0.601375 1.560795,0.734628 1.390463,1.412478 l -0.19003,0.756643 1.85395,-0.15411 c 1.017355,-0.08459 1.85395,-0.03476 1.85395,0.115873 0,0.150633 0.170331,0.264187 0.376583,0.264187 0.206253,0 0.851659,0.29895 1.431019,0.66163 0.579359,0.362678 1.841204,0.951307 2.80294,1.307034 1.441446,0.531852 1.903775,0.587471 2.636085,0.314013 0.487821,-0.18192 0.887579,-0.404393 0.887579,-0.494773 0,-0.158745 -2.968637,-1.066022 -4.532908,-1.384669 -0.519105,-0.105444 -0.993023,-0.57936 -1.469255,-1.46462 -0.385854,-0.719565 -0.827325,-1.231718 -0.980276,-1.139021 -0.152952,0.0927 -0.128619,0.347615 0.073,0.579359 0.371948,0.44263 0.186554,1.316305 -0.278093,1.316305 -0.152951,0 -0.356886,-0.301267 -0.454217,-0.668581 C 31.635342,75.943589 31.02238,75.51718 29.608742,74.923916 28.521865,74.467381 27.48597,74.183494 27.307527,74.292414 27.129084,74.401333 26.26468,73.702626 25.379419,72.74089 23.848751,71.071176 23.779228,71.030621 23.83253,71.850994 c 0.06489,0.996498 -0.556185,1.390462 -0.834278,0.523741 -0.103126,-0.320965 -0.726516,-0.797199 -1.390462,-1.057911 -1.568906,-0.621073 -1.578176,-0.617596 -1.055593,0.381219 0.297791,0.568931 1.083402,1.158718 2.341771,1.751983 z m -0.636136,2.154059 c 0.762436,1.224766 1.083402,1.49243 1.783268,1.49243 a 4.750747,4.750747 0 0 1 1.330209,0.18076 c 0.312854,0.115871 0.476234,0.01622 0.476234,-0.296632 0,-0.264188 0.13557,-0.478551 0.301266,-0.478551 0.820373,0 0.08574,-0.57009 -1.882918,-1.462303 -3.49933,-1.586286 -3.369554,-1.622206 -2.008059,0.564296 z M 24.52776,24.123367 c 1.151766,-0.161062 2.609435,-0.505202 3.238619,-0.765913 1.070656,-0.441472 1.113528,-0.507519 0.662787,-0.999975 -0.720723,-0.785611 -0.622232,-0.852817 1.02199,-0.69523 1.418271,0.134411 1.650015,0.04982 3.97904,-1.457669 2.304692,-1.49243 2.412452,-1.607143 1.599032,-1.69984 -1.216655,-0.139046 -3.469204,0.231744 -3.469204,0.564296 0,0.152951 -0.507518,0.286203 -1.128592,0.295473 -1.382351,0.0197 -3.741503,0.878308 -3.926898,1.4287 -0.100808,0.296632 0.0533,0.347616 0.57936,0.207411 l 0.71377,-0.195823 -0.711454,0.610644 c -0.391646,0.336029 -1.034735,0.628026 -1.431017,0.648883 -0.396282,0.02086 -0.842389,0.0533 -0.990704,0.07416 -0.382378,0.05214 -2.513261,1.99879 -2.356834,2.1529 0.07068,0.06952 1.070656,0 2.222422,-0.166856 z m 1.311669,-6.494619 c 0.665105,-1.077608 0.716089,-1.258368 0.358045,-1.258368 -0.133253,0 -0.390488,0.368472 -0.57009,0.819214 -0.523741,1.309352 -0.436837,1.490112 0.212045,0.439154 z m 3.761202,62.16758 c 1.937377,-0.565455 2.111185,-0.545756 2.111185,0.246807 0,0.695232 0.06489,0.720723 1.958235,0.645407 1.07645,-0.04287 1.98952,-0.108919 2.028917,-0.148317 0.0394,-0.0394 -1.035895,-0.645406 -2.389279,-1.345271 -1.680142,-0.86904 -2.896796,-1.295449 -3.837677,-1.341797 a 20.741067,20.741067 0 0 1 -2.433308,-0.275775 c -0.793722,-0.156427 -0.894531,-0.137888 -0.40787,0.07648 0.982594,0.432203 1.15872,0.926975 0.324442,0.926975 -1.267638,0 -1.213178,0.429885 0.129777,1.009245 1.119322,0.484344 1.472731,0.513312 2.510943,0.210886 z m -0.94088,2.356834 c 0.206252,0 0.834278,0.33487 1.390463,0.743898 0.702183,0.512154 1.086878,0.637296 1.232877,0.403234 0.121665,-0.195824 1.158718,-0.366155 2.433309,-0.400917 1.969822,-0.0533 3.611726,-0.304743 4.236276,-0.648883 0.115871,-0.06489 -0.0081,-0.373107 -0.278093,-0.685961 -0.383535,-0.441472 -0.619914,-0.500566 -1.069497,-0.263029 -0.316331,0.168014 -1.669714,0.347616 -3.006876,0.400917 -1.812235,0.07184 -2.498198,0.214363 -2.692862,0.558503 -0.143681,0.254918 -0.454218,0.390488 -0.688279,0.301266 -0.322124,-0.121666 -0.356885,-0.347616 -0.143681,-0.900324 0.463488,-1.193481 0.347615,-1.274591 -0.926976,-0.660471 -1.119321,0.53417 -1.377716,1.151767 -0.482026,1.151767 z m 8.028763,-62.50245 c 0.177284,0 0.231743,0.315172 0.115871,0.743898 -0.115871,0.428726 -0.05909,0.743897 0.115872,0.743897 0.332552,0 0.659311,-0.986069 0.665105,-2.009217 0,-0.687121 0.764754,-0.945516 0.972165,-0.330236 0.07416,0.218998 0.539963,0.08111 1.305876,-0.384695 2.085694,-1.267638 5.125014,-2.366103 6.952313,-2.509784 0.973323,-0.07763 2.413611,-0.196982 3.200381,-0.266506 1.261845,-0.115871 1.431018,-0.05794 1.431018,0.455377 0,0.629184 0.589788,0.771707 1.1031,0.265347 0.224791,-0.222475 0.709135,-0.0591 1.640746,0.555026 0.727675,0.478551 1.893346,1.221289 2.590894,1.651174 1.060228,0.652359 3.707901,3.649964 3.707901,4.201514 0,0.09038 0.257236,0.73231 0.572407,1.426383 1.150608,2.536436 1.287337,3.244413 0.709136,3.659234 -0.485503,0.347615 -0.463487,0.426409 0.304743,1.023148 0.463488,0.361521 0.736945,0.792564 0.619914,0.980277 -0.347615,0.551549 -0.07995,3.003399 0.38006,3.509759 0.658152,0.725358 0.508678,1.165671 -0.402075,1.177258 l -0.828484,0.0093 0.711453,0.585152 c 0.390489,0.322125 0.891055,0.585154 1.111211,0.585154 0.592106,0 0.838912,0.563137 0.450742,1.026625 -0.266505,0.31633 0.143681,1.042847 1.886394,3.334793 1.225924,1.611778 2.38812,3.232825 2.583943,3.601298 0.195824,0.368472 0.555026,0.66858 0.798357,0.66858 0.853976,0 0.428727,0.821532 -0.537645,1.042847 l -0.979118,0.220156 1.067181,0.429886 c 1.33832,0.538804 1.622206,1.002291 2.433309,3.881707 0.987228,3.537568 1.238671,5.394995 1.042847,7.675353 -0.183077,2.085694 -1.543413,6.758807 -2.024282,6.944201 a 0.46348751,0.46348751 0 0 0 -0.257236,0.406711 c 0,0.169173 -0.463486,0.926975 -1.025466,1.687095 -1.056751,1.420589 -3.676615,3.012669 -4.953522,3.012669 -0.375425,0 -0.647724,0.187712 -0.647724,0.446107 0,0.647723 -0.347616,0.555026 -1.506335,-0.406711 -1.028942,-0.849341 -1.037053,-0.850499 -1.353383,-0.223633 -0.347616,0.695232 -0.33487,0.689438 -2.719513,0.741581 -1.289654,0.02897 -1.710269,0.155268 -1.860903,0.558501 -0.479709,1.28502 -1.369605,1.079927 -0.989545,-0.231743 0.193506,-0.667422 0.158745,-0.888737 -0.141364,-0.888737 -0.483186,0 -2.111186,1.461144 -2.317437,2.085693 -0.126301,0.370791 -0.231744,0.381219 -0.628026,0.05794 -0.850499,-0.695232 -3.609409,0.998815 -6.974328,4.280307 -2.079901,2.027757 -3.570013,3.20154 -4.914127,3.868962 -1.929266,0.959419 -1.929266,0.959419 -1.232877,1.443763 0.616439,0.428726 0.709137,0.432202 0.794882,0.03013 0.0533,-0.250284 0.395122,-0.454218 0.757802,-0.454218 0.362679,0 1.201591,-0.347615 1.860902,-0.783294 1.778633,-1.158718 4.96511,-4.330131 4.96511,-4.938459 0,-0.368472 0.231744,-0.528375 0.771707,-0.528375 0.422932,0 0.695231,-0.115873 0.60485,-0.264189 -0.188871,-0.302426 0.537647,-0.986069 0.926976,-0.872515 0.141364,0.04056 1.206226,-0.276934 2.366103,-0.707977 2.483135,-0.926975 2.994131,-1.012721 8.130731,-1.43797 4.063626,-0.337187 6.624395,-0.946673 6.893218,-1.639587 0.115871,-0.282727 0.500566,-0.355727 1.3024,-0.246807 l 1.144813,0.157585 -0.69523,-0.557344 c -0.765914,-0.615279 -0.614122,-0.979116 0.409026,-0.979116 0.478552,0 0.957103,-0.440314 1.667397,-1.534144 0.546915,-0.842389 0.977959,-1.768206 0.955943,-2.055567 -0.02433,-0.317489 0.304743,-0.663947 0.842389,-0.884103 0.485503,-0.198141 0.882944,-0.493614 0.882944,-0.654676 0,-0.161062 -0.169174,-0.224791 -0.376585,-0.141364 -1.421747,0.57936 -1.431017,0.57936 -1.431017,-0.05562 0,-0.422932 0.191189,-0.628026 0.585153,-0.628026 0.763595,0 0.988387,-0.400917 1.060228,-1.894505 0.0394,-0.798357 0.395123,-1.747348 1.015038,-2.702132 1.186527,-1.829617 1.191163,-2.021965 0.03244,-1.450716 -1.071815,0.528376 -1.470413,0.315172 -0.950149,-0.508677 0.207411,-0.327918 0.296633,-1.059069 0.206252,-1.697524 -0.0869,-0.616438 -0.231744,-1.656968 -0.332552,-2.311644 -0.231744,-1.599032 -1.791379,-5.583866 -2.941987,-7.531672 -0.513312,-0.869039 -1.099624,-1.873648 -1.301241,-2.231692 -0.231744,-0.405551 -0.599058,-0.61528 -0.979118,-0.557344 -0.546915,0.08343 -0.610645,-0.06836 -0.610645,-1.431017 0,-0.983753 -0.115871,-1.45651 -0.315171,-1.332527 -0.501726,0.305901 -1.201591,-0.463488 -1.9536,-2.140153 -0.651199,-1.454193 -1.032418,-3.390412 -1.506334,-7.634799 -0.115872,-1.078767 -0.347616,-1.79022 -0.619915,-1.891028 -0.617597,-0.231744 -0.529535,-0.76012 0.340663,-2.0266 0.421774,-0.615279 0.712613,-1.173782 0.644249,-1.240987 -0.06836,-0.06721 -0.517948,0.01042 -0.981436,0.187712 -1.192321,0.448424 -1.772839,0.188871 -1.289654,-0.579359 0.304744,-0.482028 0.279252,-0.683645 -0.143681,-1.145974 -0.359203,-0.391647 -0.514471,-1.076449 -0.514471,-2.266454 0,-1.061386 -0.115872,-1.636111 -0.301267,-1.521397 -0.165697,0.100808 -0.301267,0.443789 -0.301267,0.761277 0,0.782136 -1.08572,0.764755 -1.293129,-0.02086 -0.08691,-0.330235 -0.611804,-0.787929 -1.164513,-1.017355 -0.552709,-0.229426 -1.404368,-0.830802 -1.891029,-1.336002 -0.975642,-1.011563 -1.37424,-1.148292 -1.37424,-0.470441 0,0.695232 -0.57936,0.5249 -0.951309,-0.281568 -0.251442,-0.544598 -0.709136,-0.811103 -1.815712,-1.042847 -0.811103,-0.172649 -1.691729,-0.314013 -1.948965,-0.314013 -0.257236,0 -0.962895,-0.378901 -1.566588,-0.842389 -1.792538,-1.376557 -1.961711,-1.421748 -1.413637,-0.375425 0.559661,1.069498 0.687121,0.979118 -2.329025,1.651175 -3.203857,0.713771 -10.006694,4.626764 -8.043825,4.626764 z m 2.707925,-3.280332 c 0.695232,0 0.726517,-0.107761 0.253759,-0.980277 -0.340662,-0.628025 -0.353408,-0.629184 -0.579359,-0.05446 -0.363837,0.909595 -0.324441,1.034737 0.3256,1.034737 z m 5.421645,2.711402 c 0,0.347615 1.819189,2.348723 2.140154,2.348723 0.148316,0 0.269981,-0.463488 0.269981,-1.024308 0,-0.560819 0.13557,-1.106576 0.301267,-1.207385 0.579359,-0.353408 0.291998,-0.653517 -0.979117,-1.025466 -0.703343,-0.207411 -1.431018,-0.49709 -1.614096,-0.645406 -0.20741,-0.165697 -0.782135,-0.07648 -1.506333,0.231744 l -1.171465,0.504042 1.280384,0.283886 c 0.703343,0.157586 1.274591,0.395123 1.274591,0.530693 z m 0.826167,61.781727 c 1.628,-0.165697 1.645381,-0.158746 1.506334,0.579359 l -0.14368,0.74158 0.714929,-0.663946 c 0.392805,-0.363838 0.71377,-0.836595 0.71377,-1.049799 0,-0.278093 0.19003,-0.316331 0.677851,-0.133254 1.015037,0.381219 3.885185,-0.265346 3.772788,-0.850499 -0.101967,-0.535327 -2.471547,-0.818055 -3.041637,-0.362679 -0.194664,0.156427 -1.506334,0.38006 -2.915336,0.498249 -1.409002,0.118189 -2.728782,0.347617 -2.933876,0.513313 -0.727675,0.57936 -0.0069,0.901483 1.651174,0.73231 z m 1.544572,-2.166805 c 0.78677,-0.125141 1.244464,-0.347616 1.244464,-0.623391 0,-0.336028 0.283886,-0.384694 1.342955,-0.231743 1.382351,0.205092 4.682383,-0.566614 4.682383,-1.096149 a 0.28156866,0.28156866 0 0 0 -0.301267,-0.256077 c -0.165697,0 -0.301267,-0.168013 -0.300109,-0.371948 0,-0.237538 0.500567,-0.385853 1.378875,-0.410186 1.126275,-0.03129 1.570065,-0.221316 2.433311,-1.042847 1.105417,-1.050958 1.753141,-2.002266 1.520239,-2.231692 -0.232903,-0.229426 -6.163225,0.742738 -7.277913,1.20275 -1.191163,0.491297 -1.390463,0.975641 -0.454218,1.12048 0.338346,0.05214 0.617597,0.231744 0.619915,0.392806 0.0081,0.385854 -1.063704,0.676692 -2.626816,0.713771 -1.071815,0.02549 -1.415954,0.216681 -2.512102,1.390463 -0.695231,0.749691 -1.208544,1.424065 -1.133227,1.498222 0.07532,0.07416 0.695231,0.04751 1.38351,-0.06025 z m 0.38933,-60.968306 c 0.875991,0.390488 1.785585,0.533011 3.012668,0.472757 1.729968,-0.08459 2.085694,0.104285 1.422907,0.757802 -0.486662,0.480869 -0.158744,0.820374 1.223607,1.274591 0.670898,0.218998 1.220131,0.488979 1.220131,0.601375 0,0.112395 0.507519,0.35341 1.129751,0.536487 a 19.053971,19.053971 0 0 1 2.333659,0.914229 c 0.662788,0.319806 1.257211,0.529535 1.322099,0.463487 0.287362,-0.282727 -0.947832,-1.622206 -1.495907,-1.622206 -0.337187,0 -1.215495,-0.149475 -1.951282,-0.332552 -1.403208,-0.347616 -1.761253,-0.982594 -0.735787,-1.304717 0.915389,-0.286204 0.729994,-0.665105 -0.677849,-1.390462 -0.979118,-0.502885 -1.701,-0.639613 -3.067129,-0.579361 -1.594398,0.06952 -1.74503,0.02781 -1.390463,-0.389329 0.354568,-0.417138 0.176125,-0.463488 -1.602508,-0.463488 -1.097306,0 -1.995314,0.115873 -1.995314,0.252602 0,0.136729 0.565455,0.504042 1.256051,0.811103 z m 3.521346,4.027707 c 2.246756,1.017355 2.753116,1.378875 3.222397,2.300056 0.529535,1.042847 0.56082,1.059069 0.662787,0.347616 0.214363,-1.506334 0.347615,-1.607143 1.110052,-0.794881 0.397441,0.424091 1.106578,0.858611 1.575858,0.966372 a 6.1052892,6.1052892 0 0 1 1.456509,0.555026 7.9128906,7.9128906 0 0 0 1.107736,0.54228 c 0.435679,0.158744 0.463487,0.06952 0.213204,-0.644248 -0.203934,-0.579359 -0.719564,-1.015037 -1.710269,-1.449557 -3.557266,-1.558477 -7.244309,-3.045113 -7.554846,-3.045113 -0.186554,0 -0.339504,-0.390488 -0.339504,-0.869039 v -0.86788 l -1.205068,0.463487 c -0.662788,0.257236 -1.205068,0.6512 -1.205068,0.874833 0,0.223633 1.199274,0.950149 2.665053,1.614095 z m 3.057859,58.087731 c 0,1.042847 0.368473,0.860927 1.03126,-0.519106 0.288521,-0.600217 0.724199,-1.042847 1.02199,-1.042847 0.721881,0 2.751957,-1.710269 3.098414,-2.609434 0.276934,-0.719565 0.304743,-0.726518 0.880626,-0.210888 0.575884,0.51563 0.594422,0.507519 0.594422,-0.695231 0,-0.926975 0.149475,-1.304717 0.602535,-1.544573 0.828484,-0.437995 0.755484,-0.892213 -0.142523,-0.892213 -0.508677,0 -0.881785,0.259553 -1.173782,0.819215 a 5.8723868,5.8723868 0 0 1 -1.062546,1.390462 c -0.347615,0.311695 -0.633819,0.749691 -0.633819,0.974482 0,0.224792 -0.407869,0.48898 -0.907276,0.587471 -0.599058,0.115871 -0.881785,0.337187 -0.828484,0.64309 0.0533,0.305901 -0.231744,0.530692 -0.823849,0.654675 -1.469256,0.30822 -2.37885,0.891055 -1.990679,1.274591 0.183077,0.18076 0.333711,0.712612 0.333711,1.180734 z m 3.274539,-59.60797 c 0.601375,0 0.655835,-0.06721 0.339504,-0.442631 -0.389329,-0.463487 -1.254892,-0.594423 -1.610619,-0.24333 -0.293155,0.289679 0.431043,0.680167 1.274591,0.685961 z m 6.814426,48.222399 c 0.49709,-0.407869 4.366052,-7.257056 5.296503,-9.377511 0.360361,-0.818056 0.926975,-2.076424 1.246781,-2.795989 0.442631,-0.977958 0.54344,-1.637269 0.396282,-2.6048 -0.198141,-1.307034 -0.762437,-1.815712 -0.762437,-0.68712 0,0.366156 -0.360361,0.811103 -0.901484,1.117006 -0.982593,0.552708 -1.170305,0.953625 -0.443789,0.953625 0.544598,0 0.957103,0.866721 0.544598,1.145973 -0.27114,0.181918 -1.363811,2.346406 -1.93506,3.823772 a 0.98838712,0.98838712 0 0 1 -0.945514,0.683644 c -0.376584,0 -1.227084,0.347615 -1.889871,0.762437 -1.158719,0.734628 -1.173781,0.756643 -0.31633,0.623391 a 3.8863428,3.8863428 0 0 1 1.656968,0.154109 l 0.76823,0.290838 -0.644247,0.517948 c -0.354568,0.285045 -0.933927,1.042847 -1.288496,1.688253 -1.023149,1.85395 -1.864378,3.229349 -2.180708,3.551473 -0.426409,0.433361 0.882944,0.579359 1.399732,0.150633 z m 0.622231,-40.47984 c 0.258395,0 0.385853,-0.134411 0.283887,-0.297791 a 0.65004124,0.65004124 0 0 0 -0.463488,-0.297791 0.29199714,0.29199714 0 0 0 -0.283886,0.297791 c 0,0.16338 0.210886,0.297791 0.463487,0.297791 z m 1.9536,3.331316 c 0.695231,0.510995 0.826167,0.782135 0.685962,1.475049 -0.200459,0.988387 0.347615,1.173782 0.606009,0.203934 0.146,-0.551549 0.239856,-0.58747 0.650041,-0.250283 0.286204,0.231744 0.369632,0.502884 0.20857,0.661629 -0.40671,0.402075 1.152925,3.08335 2.123931,3.649963 0.926976,0.542281 0.955944,0.513313 0.539963,-0.570089 -0.16222,-0.419456 -0.500566,-0.763595 -0.753167,-0.763595 a 0.45421777,0.45421777 0 0 1 -0.463487,-0.446107 c 0,-0.585153 1.117005,-0.57936 2.557292,0.01738 l 1.125116,0.463488 -0.66047,-0.915388 C 72.656303,33.745368 71.204428,32.940059 70.450103,33.176437 70.054979,33.30042 69.67492,33.014216 69.05037,32.123162 a 12.650892,12.650892 0 0 0 -1.928108,-2.09844 c -0.898007,-0.733469 -0.997657,-0.926975 -0.617597,-1.188846 0.347615,-0.245648 0.285045,-0.276933 -0.301267,-0.14484 a 7.2744365,7.2744365 0 0 1 -1.150608,0.174967 c -0.53301,0.0058 0.626867,1.60946 1.765888,2.442579 z m -1.527192,2.588578 c 0.318649,1.592079 1.127434,3.604774 1.449558,3.604774 0.0927,0 0.402076,-0.209729 0.688279,-0.463488 0.485503,-0.433361 0.535328,-0.376583 0.724199,0.818056 0.285045,1.809918 0.463488,2.325548 0.780977,2.325548 0.154109,0 0.281569,-0.347615 0.281569,-0.763596 a 3.2444126,3.2444126 0 0 1 0.283886,-1.297765 c 0.354568,-0.654675 -0.522583,-2.557292 -1.178417,-2.557292 -0.556185,0 -1.819189,-1.824981 -1.819189,-2.629133 0,-0.607168 -1.08572,-1.983726 -1.564271,-1.983726 -0.140204,0 -0.191188,0.301267 -0.115871,0.669739 0.07532,0.368473 0.287362,1.390463 0.463487,2.273406 z m 1.143656,34.002602 c 0.322124,-0.170331 1.005768,-0.780976 1.517922,-1.358018 0.735787,-0.828484 0.910753,-1.274591 0.835436,-2.104233 -0.0533,-0.57936 -0.151792,-1.111212 -0.220156,-1.178418 -0.141364,-0.139045 -2.945464,4.70324 -2.809893,4.852714 0.0533,0.04983 0.353409,-0.04519 0.676691,-0.212045 z m 3.592029,-26.088553 c 0.717246,1.487795 1.107734,1.323256 0.852816,-0.36152 -0.266505,-1.757777 -0.400916,-1.979092 -0.936244,-1.539938 -0.535328,0.439155 -0.53417,0.623391 0.08343,1.901458 z m 0.101966,20.695876 c 0.440314,0 0.864405,-1.254892 1.088037,-3.217762 q 0.320965,-2.823797 -0.852816,0.04287 c -0.572408,1.390464 -0.70566,3.17489 -0.231744,3.17489 z m 1.493589,-21.165157 c 0.168015,0.881785 0.305902,2.018488 0.305902,2.526007 0,1.225925 0.947832,3.457617 1.468096,3.458775 0.326759,0 0.338346,-0.08922 0.05099,-0.431043 -0.200459,-0.237538 -0.385854,-1.376558 -0.413663,-2.529484 l -0.05098,-2.098439 h 0.979118 c 0.538804,0 0.979116,-0.107761 0.979116,-0.239855 0,-0.463487 -1.656967,-2.211994 -2.332501,-2.465753 -0.675532,-0.253759 -0.961736,-1.158719 -0.360361,-1.158719 0.174967,0 0.231744,-0.142522 0.115872,-0.31633 -0.293156,-0.463488 -1.390462,0.609486 -1.20275,1.185369 0.08227,0.258394 0.288521,1.192321 0.456536,2.074106 z"
     id="path4"
     style="stroke-width:0.115871" />
  <path
     d="M 18.244028,0.86904001 33.352562,15.977574 V 42.026731 H 7.2999293 L 0.86904001,35.591207 V 53.22343 H 33.174119 V 77.935426 H 14.125942 l -5.5352001,-5.5352 V 90.162227 H 73.061854 V 72.400226 l -5.53404,5.5352 H 48.479636 V 53.22343 H 80.784715 V 35.591207 l -6.435524,6.435524 H 48.300034 V 15.977574 L 63.408569,0.86904001 H 46.319784 L 40.826299,6.3625258 35.333971,0.86904001 Z"
     fill="#fefefe"
     stroke="#000000"
     stroke-linejoin="round"
     stroke-width="1.73808"
     id="path6" />
  <metadata
     id="metadata863">
    <rdf:RDF>
      <cc:Work
         rdf:about="">
        <dc:title>logo</dc:title>
      </cc:Work>
    </rdf:RDF>
  </metadata>
  <g
     aria-label="Обретенная 
память
&lt;тризуб&gt;Надбана 
пам'ять"
     id="text12915"
     style="font-weight:500;font-size:170.667px;line-height:1.25;font-family:Raleway;-inkscape-font-specification:'Raleway Medium'"
     transform="scale(0.11587188)">
    <path
       d="m 834.98002,144.00941 c 36.00007,0 61.00012,-26.66672 61.00012,-65.000127 0,-39.333412 -24.00005,-65.00013 -61.00012,-65.00013 -36.00007,0 -61.00012,26.66672 -61.00012,65.00013 0,39.333407 24.33338,65.000127 61.00012,65.000127 z m 0,-18.6667 c -24.00005,0 -39.33341,-18.00004 -39.33341,-46.333427 0,-28.33339 15.33336,-46.333426 39.33341,-46.333426 23.66671,0 39.33341,18.000036 39.33341,46.333426 0,28.333387 -15.6667,46.333427 -39.33341,46.333427 z"
       style="font-weight:normal;font-family:'e-Ukraine Head';-inkscape-font-specification:'e-Ukraine Head'"
       id="path39159" />
    <path
       d="m 1012.3137,97.675987 c 0,-26.333386 -18.00003,-45.00009 -43.00008,-45.00009 -16.00003,0 -29.00006,5.666678 -36.33341,16.000032 1.66667,-16.333366 10.33336,-25.00005 27.33339,-28.666724 l 29.33339,-6.000012 c 11.66671,-3.000006 18.33341,-9.333352 19.33341,-20.666708 l 0.3333,-3.000006 -19.00004,-3.6666736 -0.66667,3.000006 c -0.66666,4.0000076 -2.66667,6.0000116 -6.33334,6.6666796 l -23.66672,5.00001 c -30.66672,6.66668 -44.66675,26.66672 -44.66675,65.333464 0,35.000065 19.00004,57.333445 49.0001,57.333445 28.66672,0 48.66672,-19.33337 48.33342,-46.333423 z m -48.33342,29.333393 c -16.33337,0 -28.00006,-12.33336 -28.00006,-30.000061 0,-17.666702 11.00002,-28.666724 28.00006,-28.666724 17.00003,0 27.66672,11.333356 27.66672,29.666726 0,17.333369 -10.66669,29.000059 -27.66672,29.000059 z"
       style="font-weight:normal;font-family:'e-Ukraine Head';-inkscape-font-specification:'e-Ukraine Head'"
       id="path39161" />
    <path
       d="m 1088.3139,40.675873 c -14.3334,0 -26.3334,6.333346 -34.3334,17.666702 l -1.3334,-16.000032 h -17.3333 V 175.67614 h 20 v -46.66676 c 7.6667,9.66669 19.3334,15.00003 33.0001,15.00003 25.6667,0 43.6667,-21.00004 43.6667,-51.666767 0,-31.333396 -17.3333,-51.66677 -43.6667,-51.66677 z m -5.3334,86.333507 c -17.6667,0 -29,-13.66669 -29,-34.666737 0,-21.000042 11.3333,-34.666736 29,-34.666736 17.3334,0 28.6667,13.666694 28.6667,34.666736 0,21.000047 -11.3333,34.666737 -28.6667,34.666737 z"
       style="font-weight:normal;font-family:'e-Ukraine Head';-inkscape-font-specification:'e-Ukraine Head'"
       id="path39163" />
    <path
       d="m 1168.6474,98.675989 h 77.0001 c 0.6667,-2.333338 0.6667,-4.000008 0.6667,-6.333346 0,-31.333396 -19.0001,-51.66677 -48.0001,-51.66677 -29.6667,0 -49.6668,21.000042 -49.6668,51.66677 0,29.666727 18.0001,51.666767 51.3335,51.666767 21,0 34.6667,-8.00001 43,-18.00003 l -13.6667,-12.00003 c -5.6666,7.33335 -15,13.00003 -29.6667,13.00003 -17.6667,0 -28.6667,-11.00002 -31,-28.333391 z m 29.6667,-41.333416 c 14.6667,0 25,9.666686 27.6667,26.000052 h -57.0001 c 3,-16.000032 13.3333,-26.000052 29.3334,-26.000052 z"
       style="font-weight:normal;font-family:'e-Ukraine Head';-inkscape-font-specification:'e-Ukraine Head'"
       id="path39165" />
    <path
       d="m 1344.3144,42.342543 h -92.0002 v 18.000036 h 36 v 82.000161 h 20.0001 V 60.342579 h 36.0001 z"
       style="font-weight:normal;font-family:'e-Ukraine Head';-inkscape-font-specification:'e-Ukraine Head'"
       id="path39167" />
    <path
       d="m 1370.9811,98.675989 h 77.0001 c 0.6667,-2.333338 0.6667,-4.000008 0.6667,-6.333346 0,-31.333396 -19,-51.66677 -48.0001,-51.66677 -29.6667,0 -49.6667,21.000042 -49.6667,51.66677 0,29.666727 18,51.666767 51.3334,51.666767 21,0 34.6667,-8.00001 43.0001,-18.00003 l -13.6667,-12.00003 c -5.6667,7.33335 -15,13.00003 -29.6667,13.00003 -17.6667,0 -28.6668,-11.00002 -31.0001,-28.333391 z m 29.6667,-41.333416 c 14.6667,0 25.0001,9.666686 27.6667,26.000052 h -57.0001 c 3,-16.000032 13.3334,-26.000052 29.3334,-26.000052 z"
       style="font-weight:normal;font-family:'e-Ukraine Head';-inkscape-font-specification:'e-Ukraine Head'"
       id="path39169" />
    <path
       d="m 1540.6481,42.342543 v 39.666746 h -48.6668 V 42.342543 h -20 V 142.34274 h 20 v -41.66675 h 48.6668 v 41.66675 h 20 V 42.342543 Z"
       style="font-weight:normal;font-family:'e-Ukraine Head';-inkscape-font-specification:'e-Ukraine Head'"
       id="path39171" />
    <path
       d="m 1660.6483,42.342543 v 39.666746 h -48.6667 V 42.342543 h -20.0001 V 142.34274 h 20.0001 v -41.66675 h 48.6667 v 41.66675 h 20.0001 V 42.342543 Z"
       style="font-weight:normal;font-family:'e-Ukraine Head';-inkscape-font-specification:'e-Ukraine Head'"
       id="path39173" />
    <path
       d="m 1793.3153,125.00937 c -4.3334,0 -6.3334,-2 -6.3334,-6.33334 V 73.675939 c 0,-20.666708 -14.6667,-33.000066 -38.6667,-33.000066 -17.3334,0 -31.6668,6.000012 -43.3335,17.000034 l 12.3334,13.000026 c 8,-8.33335 18.6667,-13.33336 30.0001,-13.33336 12.6667,0 21,5.333344 21,13.33336 0,7.666682 -7.3333,9.000018 -22.3334,11.000022 -19.6667,3.000006 -43.0001,8.33335 -43.0001,32.666735 0,17.6667 13.3334,29.66672 32.6668,29.66672 14.6667,0 28,-6.66668 35,-16.6667 1.3334,11.33336 7.0001,15.6667 19.3334,15.6667 3.3334,0 6,-0.33333 7,-0.66667 v -17.33337 z m -54.3335,2.66668 c -10.3333,0 -16.3334,-5.00001 -16.3334,-14.33336 0,-13.00003 13.0001,-15.000035 25.6668,-17.000039 9.6667,-1.66667 15.6667,-2.666672 19.3333,-5.00001 v 13.000029 c 0,12.66669 -13.3333,23.33338 -28.6667,23.33338 z"
       style="font-weight:normal;font-family:'e-Ukraine Head';-inkscape-font-specification:'e-Ukraine Head'"
       id="path39175" />
    <path
       d="m 1898.6488,42.342543 h -48.0001 c -21,0 -34.3334,11.66669 -34.3334,29.000058 0,11.66669 8.3334,20.666708 19.6667,24.666716 h -16 v 23.666713 c 0,3.00001 -2,5.00001 -5,5.00001 h -3.6667 v 17.6667 h 9 c 12.3334,0 19.3334,-6.33334 19.3334,-18.6667 v -18.6667 h 39.0001 v 37.3334 h 20 z m -43.3334,16.000032 h 23.3334 v 31.000062 h -21.6667 c -12.6667,0 -20.6667,-6.333346 -20.6667,-15.666698 0,-9.333352 7,-15.333364 19,-15.333364 z"
       style="font-weight:normal;font-family:'e-Ukraine Head';-inkscape-font-specification:'e-Ukraine Head'"
       id="path39177" />
    <path
       d="m 868.98009,255.7926 h -88.66685 v 100.0002 h 20.00004 v -82.00016 h 48.66677 v 82.00016 h 20.00004 z"
       style="font-weight:normal;font-family:'e-Ukraine Head';-inkscape-font-specification:'e-Ukraine Head'"
       id="path39179" />
    <path
       d="m 981.64698,338.45943 c -4.33335,0 -6.33335,-2 -6.33335,-6.33334 V 287.126 c 0,-20.66671 -14.6667,-33.00007 -38.66674,-33.00007 -17.33337,0 -31.66673,6.00001 -43.33342,17.00003 l 12.33335,13.00003 c 8.00002,-8.33335 18.66671,-13.33336 30.00006,-13.33336 12.6667,0 21.00005,5.33334 21.00005,13.33336 0,7.66668 -7.33335,9.00002 -22.33338,11.00002 -19.66671,3.00001 -43.00009,8.33335 -43.00009,32.66673 0,17.66671 13.33336,29.66673 32.66673,29.66673 14.6667,0 28.00006,-6.66668 35.00007,-16.6667 1.33334,11.33336 7.00002,15.6667 19.33338,15.6667 3.33334,0 6.00001,-0.33334 7.00001,-0.66667 v -17.33337 z m -54.33345,2.66667 c -10.33335,0 -16.33336,-5.00001 -16.33336,-14.33336 0,-13.00002 13.00002,-15.00003 25.66672,-17.00003 9.66668,-1.66667 15.66669,-2.66667 19.33337,-5.00001 v 13.00002 c 0,12.6667 -13.33336,23.33338 -28.66673,23.33338 z"
       style="font-weight:normal;font-family:'e-Ukraine Head';-inkscape-font-specification:'e-Ukraine Head'"
       id="path39181" />
    <path
       d="m 1125.6473,255.7926 h -30.3334 l -28.3334,77.66682 -28.3334,-77.66682 h -31.0001 v 100.0002 h 19.3334 v -79.00016 l 29.0001,79.00016 h 21.3333 l 29.0001,-79.00016 v 79.00016 h 19.3334 z"
       style="font-weight:normal;font-family:'e-Ukraine Head';-inkscape-font-specification:'e-Ukraine Head'"
       id="path39183" />
    <path
       d="m 1236.3142,255.7926 h -48.0001 c -21.0001,0 -34.3334,11.66669 -34.3334,29.00006 0,11.66669 8.3333,20.66671 19.6667,24.66671 h -16.0001 v 23.66672 c 0,3 -2,5.00001 -5,5.00001 h -3.6667 v 17.6667 h 9.0001 c 12.3333,0 19.3333,-6.33335 19.3333,-18.6667 v -18.66671 h 39.0001 v 37.33341 h 20.0001 z m -43.3335,16.00003 h 23.3334 v 31.00006 h -21.6667 c -12.6667,0 -20.6667,-6.33334 -20.6667,-15.66669 0,-9.33336 7,-15.33337 19,-15.33337 z"
       style="font-weight:normal;font-family:'e-Ukraine Head';-inkscape-font-specification:'e-Ukraine Head'"
       id="path39185" />
    <path
       d="m 1347.3144,255.7926 h -92.0002 v 18.00004 h 36 v 82.00016 h 20.0001 v -82.00016 h 36.0001 z"
       style="font-weight:normal;font-family:'e-Ukraine Head';-inkscape-font-specification:'e-Ukraine Head'"
       id="path39187" />
    <path
       d="m 1413.6478,293.45934 h -27.3334 V 255.7926 h -20 v 100.0002 h 47.3334 c 22.0001,0 36.3334,-12.00002 36.3334,-31.3334 0,-19.00003 -14,-31.00006 -36.3334,-31.00006 z m -2,45.66676 h -25.3334 v -29.33339 h 25.3334 c 11.3334,0 18.0001,5.33334 18.0001,14.66669 0,9.33336 -6.6667,14.6667 -18.0001,14.6667 z"
       style="font-weight:normal;font-family:'e-Ukraine Head';-inkscape-font-specification:'e-Ukraine Head'"
       id="path39189" />
    <path
       d="m 857.64673,606.57626 c 1.33334,-2.66667 3.33334,-4.66667 5.66668,-6.33334 10.00002,-7.00001 16.6667,-18.33337 19.00004,-31.00006 h 31.00006 V 435.24259 c -16.6667,8.33335 -27.66672,26.66672 -30.00006,45.66676 l -4.66668,37.66674 2.33334,-0.33333 c 5.00001,0 9.33335,4.66667 9.33335,9.33335 0,4.33334 -3.33334,8.00001 -7.66668,9.00002 l -5.66668,1.33333 c -9.33335,-17.6667 -14.66669,-35.00007 -14.66669,-52.0001 0,-15.33337 2.33334,-30.66673 2.33334,-46.33343 0,-7.00001 -2.66668,-13.33336 -7.00002,-18.33337 -4.33334,5.00001 -7.00001,11.33336 -7.00001,18.33337 0.33333,15.6667 2.33334,31.00006 2.33334,46.33343 0,17.00003 -5.33335,34.3334 -14.6667,52.0001 l -5.66668,-1.33333 c -4.33334,-1.00001 -7.66668,-4.66668 -7.66668,-9.00002 0,-4.66668 4.33334,-9.33335 9.33335,-9.33335 l 2.33334,0.33333 -4.66668,-37.66674 c -1.33333,-19.00004 -13.33336,-37.33341 -30.00006,-45.66676 v 134.00027 h 31.00007 c 2.33333,12.66669 9.33335,23.66671 19.00003,31.00006 2.33334,1.66667 4.33335,3.66667 5.66668,6.33334 z m -46.33342,-83.66683 v -68.33347 c 6.00001,7.00002 10.00002,15.6667 11.33335,25.33339 l 3.66668,31.00006 c -4.66668,2.66667 -8.33335,7.00001 -9.66669,12.00002 z m 87.3335,0 c -1.33333,-5.00001 -5.00001,-9.33335 -9.66668,-12.00002 l 3.66667,-31.00006 c 1,-9.66669 5.33334,-18.33337 11.33336,-25.33339 v 68.33347 z m -41.00008,24.00005 c -2.66667,-3.00001 -6.00001,-5.66668 -10.00002,-6.66668 4.00001,-7.33335 7.66668,-15.00003 10.00002,-23.00005 2.33334,8.00002 6.00001,15.6667 10.00002,23.00005 -4.00001,1 -7.33335,3.66667 -10.00002,6.66668 z m -46.33342,13.00003 v -27.66673 h 5.33334 c 1.66667,6.33335 6.66668,11.33336 13.00003,13.33336 l 4.33334,1.00001 c -1,4.33334 -1.66667,8.66668 -1.66667,13.33336 z m 71.66681,0 c 0,-4.66668 -0.66667,-9.00002 -1.66667,-13.33336 l 4.33334,-1.00001 c 6.33334,-2 11.33335,-7.00001 13.00002,-13.33336 h 5.33335 v 27.66673 z m -41.66675,0 c 0,-4.00001 0.66666,-7.66669 1.66667,-11.33336 5.66667,0.66667 10.00002,5.66668 10.00002,11.33336 z m 21.00004,0 c 0,-5.66668 4.33334,-10.66669 10.00002,-11.33336 1,3.66667 1.66667,7.33335 1.66667,11.33336 z m -9.33335,29.00005 c -5.00001,-5.66667 -8.66669,-12.33335 -10.33336,-19.6667 h 10.33336 z m 9.33335,0 v -19.6667 h 10.33335 c -1.66667,7.33335 -5.33334,14.00003 -10.33335,19.6667 z"
       style="font-weight:normal;font-family:'e-Ukraine Head';-inkscape-font-specification:'e-Ukraine Head'"
       id="path39191" />
    <path
       d="m 1053.9805,442.57594 v 52.0001 h -63.33351 v -52.0001 h -21.00004 v 126.66692 h 21.00004 v -55.33345 h 63.33351 v 55.33345 h 21 V 442.57594 Z"
       style="font-weight:normal;font-family:'e-Ukraine Head';-inkscape-font-specification:'e-Ukraine Head'"
       id="path39193" />
    <path
       d="m 1190.9807,551.90949 c -4.3333,0 -6.3333,-2 -6.3333,-6.33335 v -45.00009 c 0,-20.6667 -14.6667,-33.00006 -38.6668,-33.00006 -17.3333,0 -31.6667,6.00001 -43.3334,17.00003 l 12.3334,13.00003 c 8,-8.33335 18.6667,-13.33336 30,-13.33336 12.6667,0 21.0001,5.33334 21.0001,13.33336 0,7.66668 -7.3334,9.00002 -22.3334,11.00002 -19.6667,3.00001 -43.0001,8.33335 -43.0001,32.66673 0,17.6667 13.3334,29.66673 32.6667,29.66673 14.6667,0 28.0001,-6.66668 35.0001,-16.6667 1.3333,11.33335 7,15.6667 19.3334,15.6667 3.3333,0 6,-0.33334 7,-0.66667 v -17.33337 z m -54.3334,2.66667 c -10.3334,0 -16.3334,-5.00001 -16.3334,-14.33336 0,-13.00003 13,-15.00003 25.6667,-17.00003 9.6667,-1.66667 15.6667,-2.66668 19.3334,-5.00001 v 13.00002 c 0,12.66669 -13.3334,23.33338 -28.6667,23.33338 z"
       style="font-weight:normal;font-family:'e-Ukraine Head';-inkscape-font-specification:'e-Ukraine Head'"
       id="path39195" />
    <path
       d="m 1303.6476,551.24282 v -82.00016 h -82.0001 v 41.66675 c 0,19.33337 -1,32.3334 -3,40.33341 h -11.6667 v 41.33342 h 19 v -23.33338 h 72.0001 v 23.33338 h 19.0001 v -41.33342 z m -65.6668,0.33334 c 2,-10.00002 3,-23.66672 3,-39.66675 v -25.00005 h 43.0001 v 64.6668 z"
       style="font-weight:normal;font-family:'e-Ukraine Head';-inkscape-font-specification:'e-Ukraine Head'"
       id="path39197" />
    <path
       d="m 1427.3145,524.5761 c 0,-26.33338 -18,-45.00009 -43,-45.00009 -16.0001,0 -29.0001,5.66668 -36.3334,16.00003 1.6666,-16.33336 10.3333,-25.00005 27.3333,-28.66672 l 29.3334,-6.00001 c 11.6667,-3.00001 18.3334,-9.33335 19.3334,-20.66671 l 0.3333,-3.00001 -19,-3.66667 -0.6667,3.00001 c -0.6666,4 -2.6666,6.00001 -6.3333,6.66668 l -23.6667,5.00001 c -30.6668,6.66668 -44.6668,26.66672 -44.6668,65.33346 0,35.00007 19.0001,57.33345 49.0001,57.33345 28.6667,0 48.6668,-19.33337 48.3334,-46.33343 z m -48.3334,29.33339 c -16.3334,0 -28,-12.33335 -28,-30.00006 0,-17.6667 11,-28.66672 28,-28.66672 17,0 27.6667,11.33336 27.6667,29.66673 0,17.33336 -10.6667,29.00005 -27.6667,29.00005 z"
       style="font-weight:normal;font-family:'e-Ukraine Head';-inkscape-font-specification:'e-Ukraine Head'"
       id="path39199" />
    <path
       d="m 1529.3147,551.90949 c -4.3333,0 -6.3333,-2 -6.3333,-6.33335 v -45.00009 c 0,-20.6667 -14.6667,-33.00006 -38.6668,-33.00006 -17.3333,0 -31.6667,6.00001 -43.3334,17.00003 l 12.3334,13.00003 c 8,-8.33335 18.6667,-13.33336 30,-13.33336 12.6667,0 21.0001,5.33334 21.0001,13.33336 0,7.66668 -7.3334,9.00002 -22.3334,11.00002 -19.6667,3.00001 -43.0001,8.33335 -43.0001,32.66673 0,17.6667 13.3334,29.66673 32.6667,29.66673 14.6667,0 28.0001,-6.66668 35.0001,-16.6667 1.3333,11.33335 7,15.6667 19.3334,15.6667 3.3333,0 6,-0.33334 7,-0.66667 v -17.33337 z m -54.3334,2.66667 c -10.3334,0 -16.3334,-5.00001 -16.3334,-14.33336 0,-13.00003 13,-15.00003 25.6667,-17.00003 9.6667,-1.66667 15.6667,-2.66668 19.3334,-5.00001 v 13.00002 c 0,12.66669 -13.3334,23.33338 -28.6667,23.33338 z"
       style="font-weight:normal;font-family:'e-Ukraine Head';-inkscape-font-specification:'e-Ukraine Head'"
       id="path39201" />
    <path
       d="m 1623.9816,469.24266 v 39.66674 h -48.6668 v -39.66674 h -20 v 100.0002 h 20 v -41.66675 h 48.6668 v 41.66675 h 20 v -100.0002 z"
       style="font-weight:normal;font-family:'e-Ukraine Head';-inkscape-font-specification:'e-Ukraine Head'"
       id="path39203" />
    <path
       d="m 1756.6485,551.90949 c -4.3333,0 -6.3333,-2 -6.3333,-6.33335 v -45.00009 c 0,-20.6667 -14.6667,-33.00006 -38.6668,-33.00006 -17.3333,0 -31.6667,6.00001 -43.3334,17.00003 l 12.3334,13.00003 c 8,-8.33335 18.6667,-13.33336 30,-13.33336 12.6667,0 21.0001,5.33334 21.0001,13.33336 0,7.66668 -7.3334,9.00002 -22.3334,11.00002 -19.6667,3.00001 -43.0001,8.33335 -43.0001,32.66673 0,17.6667 13.3334,29.66673 32.6667,29.66673 14.6667,0 28.0001,-6.66668 35.0001,-16.6667 1.3333,11.33335 7,15.6667 19.3334,15.6667 3.3333,0 6,-0.33334 7,-0.66667 v -17.33337 z m -54.3334,2.66667 c -10.3334,0 -16.3334,-5.00001 -16.3334,-14.33336 0,-13.00003 13,-15.00003 25.6667,-17.00003 9.6667,-1.66667 15.6667,-2.66668 19.3334,-5.00001 v 13.00002 c 0,12.66669 -13.3334,23.33338 -28.6667,23.33338 z"
       style="font-weight:normal;font-family:'e-Ukraine Head';-inkscape-font-specification:'e-Ukraine Head'"
       id="path39205" />
    <path
       d="m 868.98009,682.69271 h -88.66685 v 100.0002 h 20.00004 v -82.00016 h 48.66677 v 82.00016 h 20.00004 z"
       style="font-weight:normal;font-family:'e-Ukraine Head';-inkscape-font-specification:'e-Ukraine Head'"
       id="path39207" />
    <path
       d="m 981.64698,765.35955 c -4.33335,0 -6.33335,-2.00001 -6.33335,-6.33335 v -45.00009 c 0,-20.66671 -14.6667,-33.00007 -38.66674,-33.00007 -17.33337,0 -31.66673,6.00002 -43.33342,17.00004 l 12.33335,13.00002 c 8.00002,-8.33335 18.66671,-13.33336 30.00006,-13.33336 12.6667,0 21.00005,5.33335 21.00005,13.33336 0,7.66669 -7.33335,9.00002 -22.33338,11.00003 -19.66671,3 -43.00009,8.33335 -43.00009,32.66673 0,17.6667 13.33336,29.66672 32.66673,29.66672 14.6667,0 28.00006,-6.66668 35.00007,-16.6667 1.33334,11.33336 7.00002,15.6667 19.33338,15.6667 3.33334,0 6.00001,-0.33333 7.00001,-0.66667 v -17.33336 z m -54.33345,2.66667 c -10.33335,0 -16.33336,-5.00001 -16.33336,-14.33336 0,-13.00003 13.00002,-15.00003 25.66672,-17.00004 9.66668,-1.66667 15.66669,-2.66667 19.33337,-5.00001 v 13.00003 c 0,12.66669 -13.33336,23.33338 -28.66673,23.33338 z"
       style="font-weight:normal;font-family:'e-Ukraine Head';-inkscape-font-specification:'e-Ukraine Head'"
       id="path39209" />
    <path
       d="m 1125.6473,682.69271 h -30.3334 l -28.3334,77.66683 -28.3334,-77.66683 h -31.0001 v 100.0002 h 19.3334 v -79.00015 l 29.0001,79.00015 h 21.3333 l 29.0001,-79.00015 v 79.00015 h 19.3334 z"
       style="font-weight:normal;font-family:'e-Ukraine Head';-inkscape-font-specification:'e-Ukraine Head'"
       id="path39211" />
    <path
       d="m 1149.6473,701.35942 h 16.6667 l 2.3333,-45.33343 h -21 z"
       style="font-weight:normal;font-family:'e-Ukraine Head';-inkscape-font-specification:'e-Ukraine Head'"
       id="path39213" />
    <path
       d="m 1272.6476,682.69271 h -48.0001 c -21.0001,0 -34.3334,11.66669 -34.3334,29.00006 0,11.66669 8.3333,20.66671 19.6667,24.66672 h -16.0001 v 23.66671 c 0,3.00001 -2,5.00001 -5,5.00001 h -3.6666 v 17.6667 h 9 c 12.3333,0 19.3333,-6.33334 19.3333,-18.6667 v -18.6667 h 39.0001 v 37.3334 h 20.0001 z m -43.3335,16.00004 h 23.3334 v 31.00006 h -21.6667 c -12.6667,0 -20.6667,-6.33335 -20.6667,-15.6667 0,-9.33335 7,-15.33336 19,-15.33336 z"
       style="font-weight:normal;font-family:'e-Ukraine Head';-inkscape-font-specification:'e-Ukraine Head'"
       id="path39215" />
    <path
       d="m 1383.6478,682.69271 h -92.0002 v 18.00004 h 36.0001 v 82.00016 h 20 v -82.00016 h 36.0001 z"
       style="font-weight:normal;font-family:'e-Ukraine Head';-inkscape-font-specification:'e-Ukraine Head'"
       id="path39217" />
    <path
       d="m 1449.9813,720.35946 h -27.3334 v -37.66675 h -20.0001 v 100.0002 h 47.3335 c 22,0 36.3334,-12.00002 36.3334,-31.33339 0,-19.00004 -14.0001,-31.00006 -36.3334,-31.00006 z m -2,45.66675 h -25.3334 v -29.33339 h 25.3334 c 11.3333,0 18,5.33335 18,14.6667 0,9.33335 -6.6667,14.66669 -18,14.66669 z"
       style="font-weight:normal;font-family:'e-Ukraine Head';-inkscape-font-specification:'e-Ukraine Head'"
       id="path39219" />
  </g>
</svg>
