<svg xmlns="http://www.w3.org/2000/svg" viewBox="0 0 3072.18 785.62">
  <title>logo</title>
  <path d="M42.1,359.62c3.33-7.77,8-17.6,10.27-21.84s4.21-9.58,4.22-11.87,1.76-9.07,3.9-15.05L64.37,300l-7.13,1.76a34.4,34.4,0,0,0-12.08,6.05c-4.77,4.15-4.89,4-3.25-4.69C43.84,292.9,53.33,284,67,279.65c7.81-2.5,31.2-22.65,31.2-26.87,0-.79-3.7-1.06-8.23-.6s-8.66-.43-9.19-2c-1.26-3.73,19.07-11.29,30.51-11.34,14.87-.06,16.11-2.23,10.15-17.74s-5-18.82,3.42-11.21c5.88,5.32,22.79,14.67,23.72,13.13.28-.46,3.68-5.52,7.56-11.25,4.78-7.06,7.05-13.77,7.05-20.84,0-6.67,1.95-12.88,5.39-17.2,7.11-8.93,10.21-8.55,10.21,1.23v8l9.75-8.7c5.36-4.78,12.36-10.5,15.55-12.7s7.48-8,9.54-12.8c4-9.35,14.56-20.3,24.53-25.37,8.4-4.28,8.94-2.63,2.81,8.67-2.91,5.36-4.75,10.29-4.08,10.95,2.67,2.64,20.15-4.28,29.48-11.67a81.76,81.76,0,0,1,41.5-16.3c12-1,13.64,3.21,3.54,9.1-11.24,6.56-9.69,9.42,5.12,9.42,11.57,0,13.12-.67,14.54-6.28.88-3.45.83-7.5-.1-9s.55-2.71,3.63-2.71,7.66,3.5,11.14,8.75l5.8,8.75,16.63-6.18c9.14-3.4,18.76-6.19,21.36-6.19,7.58,0,8.31-4.44,2.1-12.75-3.18-4.25-5.25-8.26-4.6-8.91,2.62-2.58,21.51,3.64,31.76,10.47,6,4,17,8.51,24.53,10C455.87,122.15,457,122,457,117.64c0-4.51.33-4.53,7.15-.36a136.64,136.64,0,0,1,14.95,11.18c9.1,7.93,34.41,25.67,36.63,25.67.83,0,.73-4.63-.24-10.28-2-11.63.51-13,8.32-4.49C532.23,148.52,535,155.51,535,168c0,6.4,2,15.72,4.38,20.72,4.28,8.85,4.75,9.07,19.51,9.07H574l-10.4,9.29c-5.73,5.11-10.41,10.3-10.41,11.53s4.39,6.26,9.75,11.19c7.16,6.58,12.16,9,18.85,9.08,5,.07,14.36,2.68,20.79,5.8l11.7,5.67-13.64.83c-7.51.45-13.65,1.41-13.65,2.13,0,4,20,24.11,24.07,24.11,10.81,0,23.93,10.46,37.72,30.08,5.36,7.61,7.69,16.16,4.41,16.16-.76,0-7.19-2.91-14.29-6.47S626,311.12,626,311.6c0,6,10.14,27.27,14.74,30.83,6.34,4.94,25.3,35,23.31,37-.64.64-4.73-.66-9.08-2.89-12.24-6.25-13.37-5.32-13.37,11,0,11.76,1.13,16,5.2,19.67,7.1,6.35,6.56,8.28-2.9,10.34-7.64,1.66-8,2.29-6.65,11.12,3.52,22.64,7.33,42.7,8.29,43.65.57.56,5.18-1.39,10.25-4.35s9.21-4.39,9.21-3.2c0,3.71-12.82,31-18,38.27-4.87,6.86-9.2,28.75-5.69,28.75,1,0,3.22-1.37,4.91-3s3.92-2.21,4.95-1.19c2.57,2.54-6.91,19.42-12.59,22.42-3.67,1.94-26.73,33.48-30.36,41.53-.48,1.06,1.5,1.92,4.39,1.92,15.79,0,2.66,10.88-18.51,15.33-6.06,1.28-16.28,4-22.71,6.16s-14.91,4.52-18.83,5.35c-5.27,1.11-8.83,4.83-13.68,14.29-3.61,7-6.31,13.08-6,13.44,1.21,1.44-6.55,25.28-8.65,26.57-1.24.75-3.45-1.76-4.92-5.59-2.31-6-3.13-6.41-5.85-3.08-1.74,2.13-8.52,7.42-15.07,11.76s-15.08,12-19,17.06c-6.14,8-18.72,16.87-23.79,16.87-.9,0-.86-3.47.08-7.71,1.9-8.54,1.68-8.7-7.2-5.36a104.3,104.3,0,0,1-16.38,3.94,38,38,0,0,0-18,8.9c-8.22,7.68-17.29,13.07-22,13.07-4.08,0-3.36-6.59,1.13-10.27,6.83-5.6,4.35-7-14.94-8.37-22.29-1.6-27.78.42-26,9.56,1.44,7.44-1,8.17-8.91,2.69-4.9-3.39-6.79-3.39-16.51,0-6,2.1-15.21,3.91-20.4,4s-11.63,1-14.34,2.08c-4.51,1.75-4.3,2.38,2.6,7.65l7.52,5.73-11.7-1.61a85.73,85.73,0,0,1-22.09-6.77c-10.81-5.36-50.41-20.11-54-20.11-1.13,0-.85,2.24.63,5,4.38,8.09,3.34,10.87-2.71,7.25-14.16-8.46-53.76-69.44-62.16-95.7-4.76-14.88-14-21.62-29.93-21.78q-24.69-.24-24.7-6.49c0-1.8,4.16-4,9.25-5l9.24-1.71L99.65,575.09c-8-8.48-14.45-16.41-14.45-17.63s-3.36-3-7.47-3.84c-10.49-2.28-18-11.14-20-23.7-1.64-10.09-1.4-10.64,3.9-9.27,5.09,1.32,5.47.73,3.87-5.94a34.41,34.41,0,0,0-6.75-12.82c-6.8-7.41-16.07-31.82-12.09-31.82,1.67,0,5.18,1.92,7.81,4.26s5.2,3.79,5.72,3.21,1.51-10,2.19-20.91c1.36-21.81,2.28-20.52-16.82-23.7-5.88-1-9.75-3.06-9.75-5.24s3.86-4.26,9.75-5.23c16.67-2.73,16.2-2,12.24-18.38-2-8.21-3.65-18.49-3.7-22.84-.12-10.3-2.16-12-8.81-7.4-11.11,7.68-11.62,5.39-3.19-14.22Zm11.46-3.46c2.61-2.34,6.12-4.25,7.8-4.25,3.87,0,4,6.83.15,9.17-1.94,1.19-2.33,7-1.16,17.49,2.71,24.58,6.2,35.27,11.23,34.43,7.37-1.24,6.86,7.45-.55,9.29-9.83,2.44-8.39,7.47,1.53,5.32,7.77-1.69,8.07-1.46,6.45,4.91-1.3,5.14.79,10.67,9.11,24,5.95,9.55,12.69,20.54,15,24.43s5.46,6.59,7,6c6.51-2.42,9.11,2.54,5.22,10-3.47,6.61-3.37,7.6,1.15,11.36s16.43,36.26,32.3,88.89c3.84,12.71,8.54,26.58,10.47,30.82s5.47,12.62,7.88,18.62c3,7.41,6,10.92,9.27,10.92s5.4,2.42,6.42,7.06C185,674.5,188.28,680.57,197,691c6.09,7.25,7.26,7.87,6.06,3.21-1.08-4.21-.35-5.78,2.72-5.78,2.31,0,4.2,1.6,4.2,3.56,0,3.54,7.64,9.48,16.21,12.59,3,1.08,5.42,0,7.17-3.27,2.3-4.26,1.18-5.59-8.41-10-18.37-8.43-19.68-9.79-13.69-14.11,4.91-3.55,4.69-3.81-4.39-5.5-5.25-1-10.54-1.16-11.76-.42-3.54,2.16-23.15-40.48-34.49-75-5.74-17.46-10.43-33.22-10.43-35s-1.75-6.58-3.89-10.63-3.89-9.38-3.9-11.85a4.34,4.34,0,0,0-4.1-4.5c-2.55,0-3.72-1.7-3.1-4.49,1-4.76,1.66-4.86,13.25-2.15,10.39,2.42,6.68-2.11-7.42-9.07-8.33-4.11-11.64-7.3-11.64-11.22,0-3-3.88-11.84-8.62-19.61s-8.14-15.51-7.58-17.19-1.31-3.05-4.2-3.05c-5.81,0-15.62-8.26-11.45-9.63,1.46-.48-1.17-8.59-5.88-18.1-13.33-26.92-17.21-41-18.55-67.31-2.05-40.52-3.6-42.89-16.5-25.3q-13.38,18.25-3.06,9Zm11.51-64.23c11.43-2.83,12.85,1.45,5.28,16C65.05,318.05,64,322.41,66,325.57c5.29,8.28,8.81,6.57,8.81-4.27,0-5.77,1.15-10.49,2.55-10.49,3,0,13.05-18.61,13.05-24.14,0-4.87,5.86-8.57,7.22-4.55,2,5.88,5.78,0,5.78-8.89,0-7.28.88-8.83,4.55-8,2.5.57,8.06-1.46,12.35-4.5,18.14-12.89,63.38-32.09,75.71-32.13,2.68,0,8-1.64,11.9-3.63,7.7-4,10.37-2.37,13.64,8.14,2.36,7.63,4.3,7.18,10.54-2.44,2.86-4.42,6.95-8.89,9.1-9.93s12.09-5.66,22.1-10.26c26.33-12.1,46.2-26.68,47-34.53.87-8-.93-8-10.4,0-4.16,3.53-8.46,6.42-9.57,6.42s-2.39,2.6-2.85,5.78c-.71,5-2.83,6-15.13,7.29-7.86.83-12.73,1.69-10.83,1.92,5.86.71,1.7,6.82-5,7.32-3.45.26-11.28,2.28-17.38,4.5s-22.49,5.72-36.4,7.78c-28.9,4.29-42.19,8.13-46.51,13.43-2.59,3.18-4.5,2.95-13.65-1.66-9.95-5-15.72-3.19-6.33,2,3.75,2.08,3.13,3.55-4.84,11.42-6.42,6.35-10.21,8.36-12.75,6.77-5.47-3.41-10.12-2.77-8.58,1.19.8,2.06-3,6.93-9.18,11.77-5.8,4.54-10.55,10.2-10.55,12.58,0,2.89-5.16,6.35-15.6,10.45-15.69,6.15-20.63,9.72-9.73,7ZM69.86,501c3.08,1.63,4.74,4.39,3.91,6.51-2.54,6.56,1.38,18.53,6.51,19.85,2.71.7,4.92,2.69,4.92,4.42,0,2.19-3.16,2.73-10.4,1.77-5.72-.76-10.4-.69-10.4.14,0,4,11.95,13.41,17,13.41,3.71,0,8.21,3.59,12.93,10.32,7.1,10.12,21.5,23.9,31.37,30,4.83,3,4.8,3.15-.85,4.79s-8.26,6.24-3.55,6.24c6.69,0,17.53-6.78,16.43-10.27-2.28-7.24-8.58-12.3-13.68-11-4.42,1.15-5.06-.09-5.16-9.91l-.1-11.21-3.92,7.14c-4.28,7.8-10.13,6.9-8-1.23,1.47-5.55-10.57-24.92-15.59-25.08-2-.06-2.58-3.78-1.74-11,.92-8,.54-9.9-1.44-7.09-2.1,3-3.4,3.15-5.82.75s-2.41-3.92,0-6.73c2.2-2.62,2.31-5.59.41-10.55C81.2,498.53,80,488,80,479c0-15.93-3.78-29.49-8.22-29.49-1.2,0-2.18,8.67-2.18,19.26,0,17.67-.44,19.27-5.29,19.27-4.46,0-4.86.79-2.54,5.08a23,23,0,0,0,8.09,7.9ZM80.5,377.6c1.24,0,3-2,3.81-4.5s4.36-10.8,7.82-18.51c5.72-12.77,6-15.17,3.25-27-1.67-7.12-3.63-14.69-4.36-16.81-2.15-6.23-8.82,18.37-7.44,27.46.8,5.26-.09,9.28-2.5,11.26-4.09,3.35-4.6,28.07-.58,28.07Zm8.08,28.25c4.91,0,11-17.69,7.28-21.32-4.59-4.53-3.45-6.5,6.89-11.89,8-4.2,8.72-5.11,3.9-5.2-7.4-.15-7.6-4.78-.32-7.44,5.64-2.06,16.36-24.82,13.7-29.07-.76-1.21,3.67-8.25,9.84-15.65,9.82-11.77,17.73-23.26,17.73-25.75,0-.44-4.1-.33-9.1.25-9.94,1.14-13.08-4.11-3.89-6.48,4.7-1.22,18.19-23,18.19-29.35,0-1.38-3.43-.51-7.61,1.93-5.68,3.32-9.7,9.67-15.83,25-4.51,11.3-8.52,23.52-8.91,27.17-.59,5.62-2.15,6.76-10.18,7.43-9.7.82-12.13,5.21-7.16,13,1.74,2.72,3.19,2.17,6.7-2.57l4.47-6-1.85,6.42a184.35,184.35,0,0,1-7.8,19.27c-17.57,37.95-19,41.72-19.22,52-.13,5.24,1,8.35,3.17,8.35Zm1.3,92.47c3.49,0,8.32-5.93,8.26-10.14,0-2.19-2.34-6.87-5.14-10.41l-5.08-6.42-.06,13.49c0,7.41.88,13.48,2,13.48ZM100,308c6.06,2.73,7.52,2.54,10.4-1.36,5.13-6.92,4.06-10.53-3.69-12.45-5.17-1.28-7.94-.54-10.4,2.78-4.67,6.32-4.3,7.43,3.69,11Zm1.27,134.35c7,13.07,10.41,16.42,22.1,22.09,14.08,6.82,18.14,13.31,8.31,13.31-3.33,0-5,1.26-4.2,3.22,8.37,21.07,13.59,29.5,20,32.31C160.67,519,184.4,545,180.26,549.1c-1,1-7.81-1.33-15.12-5.18s-13.62-6.66-14-6.24c-.76.76,16.84,58.94,18,59.47.33.15,5.58,3.43,11.65,7.27,10.45,6.62,14.75,6.47,7.93-.27-2.42-2.4-1.81-3.08,2.77-3.08,8.4,0,15.59,4.16,28.95,16.77,11,10.35,42.95,26.41,46.2,23.2.79-.78,0-4.46-1.68-8.18s-2.72-7.16-2.23-7.64c2.11-2.09,20.11,13.09,28.18,23.77,10.14,13.4,15.33,16.42,38.86,22.59,27.5,7.21,28.95,6.45,40.42-21.25,4.17-10.08,15.83-22.66,18.52-20,.6.6-.74,4.6-3,8.9-6.27,12-5,12.53,5.65,2.49,15.34-14.47,31.08-24.58,45.69-29.34,7.4-2.42,17-7,21.26-10.13,12.49-9.18,29.44-16.83,31.17-14.06.86,1.37.25,4.93-1.36,7.9-2.86,5.28-2.6,5.36,12.23,3.56,15.83-1.93,18.95-4,19-12.92.06-8.36,3.31-9.56,8.42-3.12,4.66,5.86,4.71,5.87,8.75.76,5-6.33,24.47-38.87,24.47-40.9,0-2.62-6.31-1.55-13.92,2.38-7.28,3.74-12.08,3.22-12.08-1.31,0-4.74,14-16.93,28-24.37,12-6.39,15.74-10.14,21.68-21.74,3.95-7.71,6.65-14.88,6-15.93s-7.19-1.2-14.52-.34c-16.89,2-15.47-.66,8.07-15.07,16.89-10.35,18-11.59,20.77-24,2.34-10.34,2.22-15.14-.59-23.16-3.06-8.73-6-11.37-21.36-19.19-16.2-8.23-25.06-15.91-21.92-19,.66-.66,6.18-.29,12.26.81,8.46,1.53,11.05,1.21,11.05-1.4,0-1.87-7.68-13.46-17.06-25.75s-19.31-26.7-22.06-32S539,313,537.43,312c-3.66-2.24-18.07-21.89-18.07-24.65,0-1.16,3.67-1.39,8.15-.5l8.15,1.61-1.89-14.92c-2.49-19.73-2.79-20.3-13.22-25.22-10.7-5-11.41-8.29-2.3-10.55,3.67-.91,6.23-3,5.67-4.64-.81-2.42-33.34-17.38-37.79-17.38-.68,0-.58,4,.23,9,1,6.23.49,9-1.75,9-3.37,0-14.82-11.24-24.8-24.35-6-7.83-41.84-26.31-41.84-21.55,0,1.42,1.15,4.7,2.55,7.29,5,9.14-15.95-.31-29.76-13.45-8.46-8-17.14-13.53-25.15-15.88-11.94-3.5-12.54-3.4-24.19,3.9-6.59,4.13-13.17,10.67-14.66,14.58C323.81,192,311.87,205.5,308,205.5c-1.33,0-1.8-2.31-1.06-5.14s.81-5.14.13-5.14-10.23,5.41-21.21,12-25.23,14-31.66,16.37c-9.19,3.41-13.82,7.47-21.57,18.88q-14.81,21.79-14.87,5.88c-.1-13.81-9.79-15.91-37.72-8.16-12.09,3.35-13.58,4.68-20.14,17.91-8.08,16.26-9.09,21.57-3.19,16.73,10.37-8.5.17,18.37-14.14,37.25-5.36,7.06-11.25,17.46-13.09,23.12s-4.48,11.68-5.86,13.39c-5.09,6.35-.58,8.8,6.32,3.44,5.09-4,7.42-4.55,8.85-2.25,1.24,2-3.86,8.32-14,17.4-11,9.85-17.2,17.75-20,25.5-5.44,15.23-5.3,15.6,5.09,13.94,7.38-1.18,9.1-.64,9.1,2.86,0,3.85-5.33,7-21.45,12.59-6,2.08-5.92,2.33,3.76,20.28ZM103.63,536c3,6.1,6.38,11.09,7.55,11.09,3.5,0,7.87-15.59,6.21-22.14-1.8-7.07-4.23-7.69-8.79-2.26-1.78,2.11-4.26,3.85-5.52,3.85-3.23,0-2.83-11.41.66-19,1.68-3.64,2.05-8.38.86-11-1.7-3.78-2.43-3-3.9,4.33C97.46,517,98.11,524.76,103.63,536Zm10-244.58C116,292.87,127.93,270,125.93,268c-.52-.51-4,1.49-7.83,4.43C111.26,277.74,108.76,288.47,113.65,291.46Zm15.63,275c1.37-.83,1.83-3.21,1-5.29-2.07-5.31-3.51-4.68-3.51,1.52,0,2.91,1.12,4.61,2.48,3.77Zm37-350.17a12.06,12.06,0,0,1,7.33-3.09c6,0,20.47-16.83,17.94-20.88-3.38-5.41-.1-7.37,12.34-7.37,9.31,0,11.52-.8,10.37-3.76-1-2.56,2.59-5.93,11.27-10.6,7-3.76,13.33-8.41,14.08-10.32q1.35-3.5,8.74-2c5,1,8.5.14,10.85-2.65s4.42-3.31,6.55-1.56,6.15,1.69,12,0c4.88-1.38,16.49-2.55,25.79-2.59,15.22-.08,26-3.63,26-8.55,0-3.12-33.32-1.77-34.39,1.38-.58,1.73-3,2.3-5.53,1.33-4.94-1.88-3-7.79,5.12-15.84,2.32-2.29,3.7-4.69,3.06-5.32-2.31-2.29-27.89,11.7-30.63,16.75a10.92,10.92,0,0,1-8.57,5.25c-9,.09-27.12,9.21-30.46,15.36-2.24,4.15-4.57,5.19-9.08,4.08S209.74,167,200,174.56c-13.92,10.88-17.17,14.72-17.28,20.44-.13,7.15-6.13,5.48-7.83-2.18-1-4.3-2.82-8.47-4.14-9.28-3.09-1.88-3,9.25.05,14.09,1.6,2.51.76,5.71-2.64,10-5.55,7-7,13.75-1.89,8.68Zm31.23,417.56c9,4.26,22.48,10.31,30,13.47,12.34,5.19,13.47,6.34,12,12.19L237.85,666l16-1.33c8.78-.73,16-.3,16,1s1.47,2.28,3.25,2.28,7.35,2.58,12.35,5.71,15.89,8.21,24.19,11.28c12.44,4.59,16.43,5.07,22.75,2.71,4.21-1.57,7.66-3.49,7.66-4.27,0-1.37-25.62-9.2-39.12-11.95-4.48-.91-8.57-5-12.68-12.64-3.33-6.21-7.14-10.63-8.46-9.83s-1.11,3,.63,5c3.21,3.82,1.61,11.36-2.4,11.36-1.32,0-3.08-2.6-3.92-5.77-1.08-4.14-6.37-7.82-18.57-12.94-9.38-3.94-18.32-6.39-19.86-5.45s-9-5.09-16.64-13.39c-13.21-14.41-13.81-14.76-13.35-7.68.56,8.6-4.8,12-7.2,4.52-.89-2.77-6.27-6.88-12-9.13-13.54-5.36-13.62-5.33-9.11,3.29,2.57,4.91,9.35,10,20.21,15.12ZM192,652.4c6.58,10.57,9.35,12.88,15.39,12.88a41,41,0,0,1,11.48,1.56c2.7,1,4.11.14,4.11-2.56,0-2.28,1.17-4.13,2.6-4.13,7.08,0,.74-4.92-16.25-12.62-30.2-13.69-29.08-14-17.33,4.87Zm19.68-444.21c9.94-1.39,22.52-4.36,27.95-6.61,9.24-3.81,9.61-4.38,5.72-8.63-6.22-6.78-5.37-7.36,8.82-6,12.24,1.16,14.24.43,34.34-12.58,19.89-12.88,20.82-13.87,13.8-14.67-10.5-1.2-29.94,2-29.94,4.87,0,1.32-4.38,2.47-9.74,2.55-11.93.17-32.29,7.58-33.89,12.33-.87,2.56.46,3,5,1.79l6.16-1.69-6.14,5.27c-3.38,2.9-8.93,5.42-12.35,5.6s-7.27.46-8.55.64c-3.3.45-21.69,17.25-20.34,18.58.61.6,9.24,0,19.18-1.44ZM223,152.14c5.74-9.3,6.18-10.86,3.09-10.86-1.15,0-3.37,3.18-4.92,7.07-4.52,11.3-3.77,12.86,1.83,3.79Zm32.46,536.52c16.72-4.88,18.22-4.71,18.22,2.13,0,6,.56,6.22,16.9,5.57,9.29-.37,17.17-.94,17.51-1.28s-8.94-5.57-20.62-11.61c-14.5-7.5-25-11.18-33.12-11.58a179,179,0,0,1-21-2.38c-6.85-1.35-7.72-1.19-3.52.66,8.48,3.73,10,8,2.8,8-10.94,0-10.47,3.71,1.12,8.71,9.66,4.18,12.71,4.43,21.67,1.82ZM247.34,709c1.78,0,7.2,2.89,12,6.42,6.06,4.42,9.38,5.5,10.64,3.48,1.05-1.69,10-3.16,21-3.46,17-.46,31.17-2.63,36.56-5.6,1-.56-.07-3.22-2.4-5.92-3.31-3.81-5.35-4.32-9.23-2.27-2.73,1.45-14.41,3-25.95,3.46-15.64.62-21.56,1.85-23.24,4.82-1.24,2.2-3.92,3.37-5.94,2.6-2.78-1.05-3.08-3-1.24-7.77,4-10.3,3-11-8-5.7-9.66,4.61-11.89,9.94-4.16,9.94Zm69.29-539.41c1.53,0,2,2.72,1,6.42s-.51,6.42,1,6.42c2.87,0,5.69-8.51,5.74-17.34,0-5.93,6.6-8.16,8.39-2.85.64,1.89,4.66.7,11.27-3.32,18-10.94,44.23-20.42,60-21.66,8.4-.67,20.83-1.7,27.62-2.3,10.89-1,12.35-.5,12.35,3.93,0,5.43,5.09,6.66,9.52,2.29,1.94-1.92,6.12-.51,14.16,4.79,6.28,4.13,16.34,10.54,22.36,14.25,9.15,5.63,32,31.5,32,36.26,0,.78,2.22,6.32,4.94,12.31,9.93,21.89,11.11,28,6.12,31.58-4.19,3-4,3.68,2.63,8.83,4,3.12,6.36,6.84,5.35,8.46-3,4.76-.69,25.92,3.28,30.29,5.68,6.26,4.39,10.06-3.47,10.16l-7.15.08,6.14,5.05c3.37,2.78,7.69,5.05,9.59,5.05,5.11,0,7.24,4.86,3.89,8.86-2.3,2.73,1.24,9,16.28,28.78,10.58,13.91,20.61,27.9,22.3,31.08s4.79,5.77,6.89,5.77c7.37,0,3.7,7.09-4.64,9l-8.45,1.9,9.21,3.71c11.55,4.65,14,8.65,21,33.5,8.52,30.53,10.69,46.56,9,66.24-1.58,18-13.32,58.33-17.47,59.93a4,4,0,0,0-2.22,3.51c0,1.46-4,8-8.85,14.56-9.12,12.26-31.73,26-42.75,26-3.24,0-5.59,1.62-5.59,3.85,0,5.59-3,4.79-13-3.51-8.88-7.33-8.95-7.34-11.68-1.93-3,6-2.89,5.95-23.47,6.4-11.13.25-14.76,1.34-16.06,4.82-4.14,11.09-11.82,9.32-8.54-2,1.67-5.76,1.37-7.67-1.22-7.67-4.17,0-18.22,12.61-20,18-1.09,3.2-2,3.29-5.42.5-7.34-6-31.15,8.62-60.19,36.94-17.95,17.5-30.81,27.63-42.41,33.39-16.65,8.28-16.65,8.28-10.64,12.46,5.32,3.7,6.12,3.73,6.86.26.46-2.16,3.41-3.92,6.54-3.92s10.37-3,16.06-6.76c15.35-10,42.85-37.37,42.85-42.62,0-3.18,2-4.56,6.66-4.56,3.65,0,6-1,5.22-2.28-1.63-2.61,4.64-8.51,8-7.53,1.22.35,10.41-2.39,20.42-6.11,21.43-8,25.84-8.74,70.17-12.41,35.07-2.91,57.17-8.17,59.49-14.15,1-2.44,4.32-3.07,11.24-2.13l9.88,1.36-6-4.81c-6.61-5.31-5.3-8.45,3.53-8.45,4.13,0,8.26-3.8,14.39-13.24,4.72-7.27,8.44-15.26,8.25-17.74-.21-2.74,2.63-5.73,7.27-7.63,4.19-1.71,7.62-4.26,7.62-5.65s-1.46-1.94-3.25-1.22c-12.27,5-12.35,5-12.35-.48,0-3.65,1.65-5.42,5.05-5.42,6.59,0,8.53-3.46,9.15-16.35.34-6.89,3.41-15.08,8.76-23.32,10.24-15.79,10.28-17.45.28-12.52-9.25,4.56-12.69,2.72-8.2-4.39,1.79-2.83,2.56-9.14,1.78-14.65-.75-5.32-2-14.3-2.87-19.95-2-13.8-15.46-48.19-25.39-65-4.43-7.5-9.49-16.17-11.23-19.26-2-3.5-5.17-5.31-8.45-4.81-4.72.72-5.27-.59-5.27-12.35,0-8.49-1-12.57-2.72-11.5-4.33,2.64-10.37-4-16.86-18.47-5.62-12.55-8.91-29.26-13-65.89-1-9.31-3-15.45-5.35-16.32-5.33-2-4.57-6.56,2.94-17.49,3.64-5.31,6.15-10.13,5.56-10.71S548,204,544,205.53c-10.29,3.87-15.3,1.63-11.13-5,2.63-4.16,2.41-5.9-1.24-9.89-3.1-3.38-4.44-9.29-4.44-19.56,0-9.16-1-14.12-2.6-13.13-1.43.87-2.6,3.83-2.6,6.57,0,6.75-9.37,6.6-11.16-.18-.75-2.85-5.28-6.8-10.05-8.78s-12.12-7.17-16.32-11.53c-8.42-8.73-11.86-9.91-11.86-4.06,0,6-5,4.53-8.21-2.43-2.17-4.7-6.12-7-15.67-9-7-1.49-14.6-2.71-16.82-2.71s-8.31-3.27-13.52-7.27c-15.47-11.88-16.93-12.27-12.2-3.24,4.83,9.23,5.93,8.45-20.1,14.25-27.65,6.16-86.36,39.93-69.42,39.93ZM340,141.28c6,0,6.27-.93,2.19-8.46-2.94-5.42-3.05-5.43-5-.47C334.05,140.2,334.39,141.28,340,141.28Zm46.79,23.4c0,3,15.7,20.27,18.47,20.27,1.28,0,2.33-4,2.33-8.84s1.17-9.55,2.6-10.42c5-3.05,2.52-5.64-8.45-8.85-6.07-1.79-12.35-4.29-13.93-5.57-1.79-1.43-6.75-.66-13,2l-10.11,4.35,11.05,2.45c6.07,1.36,11,3.41,11,4.58Zm7.13,533.19c14.05-1.43,14.2-1.37,13,5l-1.24,6.4,6.17-5.73c3.39-3.14,6.16-7.22,6.16-9.06,0-2.4,1.64-2.73,5.85-1.15,8.76,3.29,33.53-2.29,32.56-7.34-.88-4.62-21.33-7.06-26.25-3.13-1.68,1.35-13,3.28-25.16,4.3s-23.55,3-25.32,4.43c-6.28,5-.06,7.78,14.25,6.32Zm13.33-18.7c6.79-1.08,10.74-3,10.74-5.38,0-2.9,2.45-3.32,11.59-2,11.93,1.77,40.41-4.89,40.41-9.46a2.43,2.43,0,0,0-2.6-2.21c-1.43,0-2.6-1.45-2.59-3.21,0-2.05,4.32-3.33,11.9-3.54,9.72-.27,13.55-1.91,21-9,9.54-9.07,15.13-17.28,13.12-19.26s-53.19,6.41-62.81,10.38c-10.28,4.24-12,8.42-3.92,9.67,2.92.45,5.33,2,5.35,3.39.07,3.33-9.18,5.84-22.67,6.16-9.25.22-12.22,1.87-21.68,12-6,6.47-10.43,12.29-9.78,12.93s6,.41,11.94-.52ZM410.61,153c7.56,3.37,15.41,4.6,26,4.08,14.93-.73,18,.9,12.28,6.54-4.2,4.15-1.37,7.08,10.56,11,5.79,1.89,10.53,4.22,10.53,5.19s4.38,3.05,9.75,4.63a164.44,164.44,0,0,1,20.14,7.89c5.72,2.76,10.85,4.57,11.41,4,2.48-2.44-8.18-14-12.91-14-2.91,0-10.49-1.29-16.84-2.87-12.11-3-15.2-8.48-6.35-11.26,7.9-2.47,6.3-5.74-5.85-12-8.45-4.34-14.68-5.52-26.47-5-13.76.6-15.06.24-12-3.36s1.52-4-13.83-4c-9.47,0-17.22,1-17.22,2.18s4.88,4.35,10.84,7ZM441,187.76c19.39,8.78,23.76,11.9,27.81,19.85,4.57,9,4.84,9.14,5.72,3,1.85-13,3-13.87,9.58-6.86,3.43,3.66,9.55,7.41,13.6,8.34a52.69,52.69,0,0,1,12.57,4.79,68.29,68.29,0,0,0,9.56,4.68c3.76,1.37,4,.6,1.84-5.56-1.76-5-6.21-8.76-14.76-12.51-30.7-13.45-62.52-26.28-65.2-26.28-1.61,0-2.93-3.37-2.93-7.5v-7.49l-10.4,4c-5.72,2.22-10.4,5.62-10.4,7.55s10.35,8.2,23,13.93Zm26.39,501.31c0,9,3.18,7.43,8.9-4.48,2.49-5.18,6.25-9,8.82-9,6.23,0,23.75-14.76,26.74-22.52,2.39-6.21,2.63-6.27,7.6-1.82s5.13,4.38,5.13-6c0-8,1.29-11.26,5.2-13.33,7.15-3.78,6.52-7.7-1.23-7.7-4.39,0-7.61,2.24-10.13,7.07a50.68,50.68,0,0,1-9.17,12c-3,2.69-5.47,6.47-5.47,8.41s-3.52,4.22-7.83,5.07c-5.17,1-7.61,2.91-7.15,5.55s-2,4.58-7.11,5.65c-12.68,2.66-20.53,7.69-17.18,11,1.58,1.56,2.88,6.15,2.88,10.19Zm28.26-514.43c5.19,0,5.66-.58,2.93-3.82-3.36-4-10.83-5.13-13.9-2.1-2.53,2.5,3.72,5.87,11,5.92Zm58.81,416.17c4.29-3.52,37.68-62.63,45.71-80.93,3.11-7.06,8-17.92,10.76-24.13,3.82-8.44,4.69-14.13,3.42-22.48-1.71-11.28-6.58-15.67-6.58-5.93,0,3.16-3.11,7-7.78,9.64-8.48,4.77-10.1,8.23-3.83,8.23,4.7,0,8.26,7.48,4.7,9.89-2.34,1.57-11.77,20.25-16.7,33A8.53,8.53,0,0,1,576,524c-3.25,0-10.59,3-16.31,6.58-10,6.34-10.13,6.53-2.73,5.38a33.54,33.54,0,0,1,14.3,1.33l6.63,2.51-5.56,4.47c-3.06,2.46-8.06,9-11.12,14.57-8.83,16-16.09,27.87-18.82,30.65-3.68,3.74,7.62,5,12.08,1.3Zm5.37-349.35c2.23,0,3.33-1.16,2.45-2.57a5.61,5.61,0,0,0-4-2.57,2.52,2.52,0,0,0-2.45,2.57c0,1.41,1.82,2.57,4,2.57Zm16.86,28.75c6,4.41,7.13,6.75,5.92,12.73-1.73,8.53,3,10.13,5.23,1.76,1.26-4.76,2.07-5.07,5.61-2.16,2.47,2,3.19,4.34,1.8,5.71-3.51,3.47,9.95,26.61,18.33,31.5,8,4.68,8.25,4.43,4.66-4.92-1.4-3.62-4.32-6.59-6.5-6.59a3.92,3.92,0,0,1-4-3.85c0-5.05,9.64-5,22.07.15l9.71,4-5.7-7.9c-6.78-9.41-19.31-16.36-25.82-14.32-3.41,1.07-6.69-1.4-12.08-9.09a109.18,109.18,0,0,0-16.64-18.11c-7.75-6.33-8.61-8-5.33-10.26,3-2.12,2.46-2.39-2.6-1.25a62.78,62.78,0,0,1-9.93,1.51c-4.6.05,5.41,13.89,15.24,21.08Zm-13.18,22.34c2.75,13.74,9.73,31.11,12.51,31.11.8,0,3.47-1.81,5.94-4,4.19-3.74,4.62-3.25,6.25,7.06,2.46,15.62,4,20.07,6.74,20.07,1.33,0,2.43-3,2.43-6.59A28,28,0,0,1,599.83,329c3.06-5.65-4.51-22.07-10.17-22.07-4.8,0-15.7-15.75-15.7-22.69,0-5.24-9.37-17.12-13.5-17.12-1.21,0-1.65,2.6-1,5.78s2.48,12,4,19.62ZM573.38,586c2.78-1.47,8.68-6.74,13.1-11.72,6.35-7.15,7.86-11,7.21-18.16-.46-5-1.31-9.59-1.9-10.17-1.22-1.2-25.42,40.59-24.25,41.88C568,588.26,570.59,587.44,573.38,586Zm31-225.15c6.19,12.84,9.56,11.42,7.36-3.12-2.3-15.17-3.46-17.08-8.08-13.29s-4.61,5.38.72,16.41Zm.88,178.61c3.8,0,7.46-10.83,9.39-27.77q2.77-24.37-7.36.37c-4.94,12-6.09,27.4-2,27.4Zm12.89-182.66c1.45,7.61,2.64,17.42,2.64,21.8,0,10.58,8.18,29.84,12.67,29.85,2.82,0,2.92-.77.44-3.72-1.73-2.05-3.33-11.88-3.57-21.83l-.44-18.11h8.45c4.65,0,8.45-.93,8.45-2.07,0-4-14.3-19.09-20.13-21.28s-8.3-10-3.11-10c1.51,0,2-1.23,1-2.73-2.53-4-12,5.26-10.38,10.23.71,2.23,2.49,10.29,3.94,17.9Z"/>
  <path d="M157.45,7.5,287.84,137.89V362.7H63L7.5,307.16V459.33H286.3V672.6H121.91L74.14,624.83V778.12h556.4V624.83L582.78,672.6H418.39V459.33h278.8V307.16L641.65,362.7H416.84V137.89L547.23,7.5H399.75L352.34,54.91,304.94,7.5Z" fill="#fefefe" stroke="#000" stroke-linejoin="round" stroke-width="15"/>
  <g>
    <path d="M864.42,481.93a106,106,0,0,1-39.61-42.5q-14.12-27-14.11-60.69,0-34,14.79-60.69A107.53,107.53,0,0,1,866,276.4q25.66-15,56.95-15,32.29,0,58,14.79A104,104,0,0,1,1021,317.71q14.44,26.7,14.45,61,0,33.33-14.45,60.35a109.38,109.38,0,0,1-40.12,42.67q-25.68,15.64-58,15.64Q889.92,497.4,864.42,481.93ZM967.27,468.5q16.14-12.24,24.65-33.49t8.5-47.43q0-30.25-11-55.42t-30.43-39.78a70,70,0,0,0-43.18-14.62,60,60,0,0,0-36,11.56q-16,11.56-25,32.3t-9,47.94a148.11,148.11,0,0,0,10,54.74q10,25.5,29.07,41t44.88,15.47Q951.12,480.74,967.27,468.5Z"/>
    <path d="M1242.5,445q0,22.79-17.34,36t-53.72,13.26q-50,0-83.3.68,0-10.53,1.7-15.3,8.16-.68,12.58-2.72a12,12,0,0,0,6.29-7.48q1.86-5.43,1.87-16.32V363.78q0-9.86-1.87-15a12.12,12.12,0,0,0-6.12-7.14q-4.26-2-12.41-2.72-1.71-5.1-1.7-15.3,18.36.69,52.7.68,60.51,0,82.28-.68,3.74,32,6.46,42.16-5.79,3.75-15.3,3.74-1.36-14.28-11.73-22.44T1166.34,339h-24.48v58.82q11.22-1,23.46-1Q1242.49,396.76,1242.5,445Zm-44.88,26.35q9.51-8,9.52-22.61,0-18.36-14.62-27a60.92,60.92,0,0,0-31.62-8.67l-19,.68v40.46q0,10.89,2.38,16.15a12.78,12.78,0,0,0,8,7.14q5.61,1.88,16.83,1.87Q1188.1,479.38,1197.62,471.39Z"/>
    <path d="M1414.7,410.7q11.4-8.83,11.39-29.24,0-19.38-12.07-30.77t-36.89-11.39a65.21,65.21,0,0,0-15,2V450.82q0,16,6.12,22.1t21.08,6.8q1.71,5.1,1.7,15.3-19-.67-39.44-.68-25.83,0-42.84.68,0-10.53,1.7-15.3,11.91-.68,16.15-5.61t4.25-19.55V363.78q0-9.86-1.7-15a11.47,11.47,0,0,0-6-7.14q-4.24-2-12.75-2.72-1.7-5.1-1.7-15.3,32,.69,41.82.68l40.8-.68q35,0,51.34,14.62t16.32,37.4a58.88,58.88,0,0,1-7.82,29.92q-7.82,13.61-23.29,21.76t-37.23,8.16q-13.26,0-20.74-2.38a55.93,55.93,0,0,1-.68-7.14,23.88,23.88,0,0,1,1-7.48,82,82,0,0,0,15,1Q1403.32,419.54,1414.7,410.7Z"/>
    <path d="M1672.25,453.54q-6.12,16-9.18,41.14l-65.62-.34q-49,0-78.88.68,0-10.53,1.7-15.3,8.51-.68,12.75-2.72t6-7.48q1.69-5.43,1.7-16.32V363.78q0-9.86-1.87-15a12.12,12.12,0,0,0-6.12-7.14q-4.25-2-12.41-2.72-1.69-5.1-1.7-15.3,24.48.69,53.38.68,62.57,0,83.64-.68,3.73,32,6.46,42.16-5.77,3.75-15.3,3.74-1.37-14.28-11.73-22.44T1598.47,339H1572v62.56h17q18,0,25-4.08t7.31-15a51.49,51.49,0,0,1,15.64-2.38q-.67,8.5-.68,28.56,0,21.76.68,29.58-9.18,0-15-2-1-11.22-8-15.3t-25-4.08h-17v35.7q0,10.89,2.21,16.49a13.3,13.3,0,0,0,7.82,7.82q5.61,2.22,16.83,2.21h2q19.73,0,30.43-3.4t16-10q5.28-6.63,10-19.55A27.73,27.73,0,0,1,1672.25,453.54Z"/>
    <path d="M1887.13,367.86a42,42,0,0,1-16.66,3.06q-.69-16.32-8.67-24.14t-25-7.82h-15V455.58q0,10.55,1.87,15.47a11.76,11.76,0,0,0,6.8,7q4.92,2,15.13,2.72,1.69,4.08,1.7,14.28-25.17-.67-41.14-.68-19.73,0-42.16.68,0-10.2,1.7-14.28,10.2-.67,15.47-2.72a12.31,12.31,0,0,0,7.31-7.14q2-5.1,2-15.3V339h-13.94q-13.61,0-20.91,3.57a23.06,23.06,0,0,0-10.71,10q-3.4,6.46-5.78,18.36-10.89,0-16-3.06a205.18,205.18,0,0,0,5.1-44.2q17.67.69,77.86.68,61.2,0,78.54-.68Q1883.73,342,1887.13,367.86Z"/>
    <path d="M2097.25,453.54q-6.12,16-9.18,41.14l-65.62-.34q-49,0-78.88.68,0-10.53,1.7-15.3,8.49-.68,12.75-2.72t6-7.48q1.69-5.43,1.7-16.32V363.78q0-9.86-1.87-15a12.12,12.12,0,0,0-6.12-7.14q-4.26-2-12.41-2.72-1.71-5.1-1.7-15.3,24.48.69,53.38.68,62.55,0,83.64-.68,3.73,32,6.46,42.16-5.79,3.75-15.3,3.74-1.36-14.28-11.73-22.44T2023.47,339H1997v62.56h17q18,0,25-4.08t7.31-15a51.44,51.44,0,0,1,15.64-2.38q-.69,8.5-.68,28.56,0,21.76.68,29.58-9.18,0-15-2-1-11.22-8-15.3t-25-4.08h-17v35.7q0,10.89,2.21,16.49a13.3,13.3,0,0,0,7.82,7.82q5.61,2.22,16.83,2.21h2q19.71,0,30.43-3.4t16-10q5.26-6.63,10-19.55A27.76,27.76,0,0,1,2097.25,453.54Z"/>
    <path d="M2335.75,475.13q4.26,4.94,16.16,5.61,1.7,4.08,1.7,14.28-23.13-.67-37.4-.68-17,0-38.08.68,0-10.2,1.7-14.28,11.9-.67,16.15-5.61t4.25-19.55V414.1q-65.28,0-88.06,1.7v39.78q0,14.63,4.25,19.55t16.49,5.61q1.35,4.42,1.36,14.28-23.13-.67-37.4-.68-17,0-38.08.68,0-10.2,1.7-14.28,8.49-.67,12.75-2.72a11.53,11.53,0,0,0,6-7.14q1.7-5.1,1.7-15.3V362.76q0-9.86-1.7-15a11.53,11.53,0,0,0-6-7.14q-4.26-2-12.75-2.72-1.71-4.76-1.7-14.28,21.75.69,38.08.68,13.59,0,37.4-.68,0,9.87-1.36,14.28-12.24.69-16.49,5.44t-4.25,19.38v36.38h88.06V362.76q0-9.86-1.87-15a12.12,12.12,0,0,0-6.12-7.14q-4.26-2-12.75-2.72a58.06,58.06,0,0,1-1.36-14.28q21.75.69,37.74.68,13.93,0,37.74-.68a49.19,49.19,0,0,1-1.7,14.28q-12.24.69-16.33,5.44t-4.08,19.38v92.82Q2331.5,470.21,2335.75,475.13Z"/>
    <path d="M2597.21,475.13q4.24,4.94,16.15,5.61,1.69,4.08,1.7,14.28-23.11-.67-37.4-.68-17,0-38.08.68,0-10.2,1.7-14.28,11.89-.67,16.15-5.61t4.25-19.55V414.1q-65.28,0-88.06,1.7v39.78q0,14.63,4.25,19.55t16.49,5.61q1.36,4.42,1.36,14.28-23.11-.67-37.4-.68-17,0-38.08.68,0-10.2,1.7-14.28,8.51-.67,12.75-2.72a11.5,11.5,0,0,0,5.95-7.14q1.7-5.1,1.7-15.3V362.76q0-9.86-1.7-15a11.5,11.5,0,0,0-5.95-7.14q-4.24-2-12.75-2.72-1.7-4.76-1.7-14.28,21.77.69,38.08.68,13.6,0,37.4-.68,0,9.87-1.36,14.28-12.24.69-16.49,5.44t-4.25,19.38v36.38h88.06V362.76q0-9.86-1.87-15a12.12,12.12,0,0,0-6.12-7.14q-4.24-2-12.75-2.72a58.06,58.06,0,0,1-1.36-14.28q21.77.69,37.74.68,13.93,0,37.74-.68a49.19,49.19,0,0,1-1.7,14.28q-12.24.69-16.32,5.44T2593,362.76v92.82Q2593,470.21,2597.21,475.13Z"/>
    <path d="M2856.8,495q-13.61-.67-35-.68-22.44,0-36,.68,0-10.53,2-15.3,7.81-1,11-2.89a6.07,6.07,0,0,0,3.23-5.61q0-3.06-3.4-10.54l-6.8-14.62q-49,0-77.18,1.7l-3.74,8.84q-3.41,7.83-3.4,12.24,0,9.53,13.94,10.88a49,49,0,0,1,2,15.3q-12.93-.67-28.22-.68-13.26,0-24.14.68a55.47,55.47,0,0,1,2-15.3q7.47-1.35,11.56-6.29t10.88-19.89L2754.12,324a66.3,66.3,0,0,1,13.6-1.36l62.56,129.88q7.47,15.64,12.75,21.08a19.09,19.09,0,0,0,12.07,6.12Q2856.8,484.82,2856.8,495Zm-71.74-62.9-20.4-42.84q-8.85-18-12.24-28.56a141.84,141.84,0,0,1-6.63,16.83q-3.91,8.34-4.93,10.37l-19.38,44.2Z"/>
    <path d="M3045.15,475.47q4.09,4.59,16.32,5.27a62.49,62.49,0,0,1,1.36,14.62q-14.28-1-37.06-1-25.5,0-38.08,1,0-10.53,1.7-14.62,7.49-.33,11.4-2.21t5.6-7.14q1.71-5.26,1.7-15.81V427q-18,0-27.54,4.76t-12.92,11.73q-3.39,7-6.46,19.55-3.06,13.6-6.29,20.91a32.43,32.43,0,0,1-10.37,12.75,309.65,309.65,0,0,0-41.47-2.38q-1.71-5.1-1.71-14.62,8.85-.68,13.94-4.42a26.77,26.77,0,0,0,7.82-8.67,106.69,106.69,0,0,0,6.12-14.11,82.57,82.57,0,0,1,6.12-13.26,31.23,31.23,0,0,1,9.69-9.52q6.63-4.41,17.86-6.8-23.48-4.08-36.05-17.17t-12.58-33.15q0-22.44,17.17-35.87T2986,323.32l17,.34q14.27.69,25.15.68,21.09,0,34.68-.68a65.13,65.13,0,0,1-1.36,14.62q-12.24.69-16.32,5.27t-4.08,18.87V456.6Q3041.07,470.88,3045.15,475.47Zm-37.06-64.09V340a123.69,123.69,0,0,0-21.42-2q-20.73,0-29.58,8.67t-8.84,24.31q0,20.74,13.26,31.11t34.34,10.37Q3004.36,412.4,3008.09,411.38Z"/>
    <path d="M826.34,770.74q8.49-.68,12.75-2.72a11.53,11.53,0,0,0,5.95-7.14q1.69-5.1,1.7-15.3V652.76q0-9.85-1.7-15a11.53,11.53,0,0,0-5.95-7.14q-4.26-2-12.75-2.72-1.71-4.76-1.7-14.28,21.75.69,78.54.68h34.68q54.06,0,78.54-.68a49.19,49.19,0,0,1-1.7,14.28q-12.24.69-16.49,5.44T994,652.76v92.82q0,14.63,4.25,19.55t16.49,5.61q1.69,4.08,1.7,14.28-23.8-.67-37.4-.68-17.34,0-38.42.68,0-10.2,1.7-14.28,8.49-.68,12.75-2.72a11.53,11.53,0,0,0,6-7.14q1.69-5.1,1.7-15.3v-91.8q0-10.2-1.53-15.3a10.87,10.87,0,0,0-5.95-7.14,37.87,37.87,0,0,0-10.54-1.87q-7.14-.51-24.14-.51t-24.31.51q-7.32.51-10.71,1.87-4.08,1.71-5.78,7.14t-1.7,15.3v91.8q0,14.63,4.25,19.55t16.49,5.61q1.35,4.43,1.36,14.28-23.13-.67-37.4-.68-17,0-38.08.68Q824.64,774.82,826.34,770.74Z"/>
    <path d="M1258.14,785q-13.61-.67-35-.68-22.44,0-36,.68c0-7,.67-12.12,2-15.3q7.82-1,11.05-2.89a6.07,6.07,0,0,0,3.23-5.61q0-3.06-3.4-10.54l-6.8-14.62q-49,0-77.18,1.7l-3.74,8.84q-3.4,7.83-3.4,12.24,0,9.52,13.94,10.88a49,49,0,0,1,2,15.3q-12.93-.67-28.22-.68-13.28,0-24.14.68a55.47,55.47,0,0,1,2-15.3q7.47-1.35,11.56-6.29T1097,743.54L1155.46,614a66.23,66.23,0,0,1,13.6-1.36l62.56,129.88q7.47,15.65,12.75,21.08a19.09,19.09,0,0,0,12.07,6.12Q1258.13,774.82,1258.14,785Zm-71.74-62.9L1166,679.28q-8.85-18-12.25-28.56a140.08,140.08,0,0,1-6.62,16.83q-3.92,8.34-4.93,10.37l-19.38,44.2Z"/>
    <path d="M1561.41,785q-18.36-.67-38.08-.68-17.68,0-37.4.68a64.7,64.7,0,0,1,1.7-14.28q11.22-1,15.3-4.25t4.08-12.41q0-2.37-1.36-14.62l-10.54-80.92-60.52,121.38a38,38,0,0,1-13.26,2l-62.9-122.74L1348.91,731a145.14,145.14,0,0,0-1,15.64q0,13.26,4.59,18.36t15.81,5.78A49.29,49.29,0,0,1,1370,785q-18.36-.67-32.3-.68-15,0-30.6.68a48.94,48.94,0,0,1,1.7-14.28q8.16-.68,12.75-4.08t7.14-11.73q2.55-8.32,4.25-24.65l9.52-74.8a52.48,52.48,0,0,0,.34-6.8q0-11.55-4.59-15.64T1322.39,629a57.92,57.92,0,0,1-1.7-15.3q12.91.69,24.82.68,9.51,0,24.48-.68l66.3,127.5,62.9-127.5q15,.69,25.5.68,8.16,0,24.48-.68,0,9.87-1.7,15.3-10.2,0-15.3,4.59t-5.1,15.47a59.19,59.19,0,0,0,.34,7.14L1538,736.4q2,14.63,4.25,21.42t6.12,9.52q3.9,2.73,11.39,3.4A49.29,49.29,0,0,1,1561.41,785Z"/>
    <path d="M1753.17,765.47q4.08,4.59,16.32,5.27a63,63,0,0,1,1.36,14.62q-14.28-1-37.06-1-25.5,0-38.08,1,0-10.53,1.7-14.62,7.47-.33,11.39-2.21t5.61-7.14q1.69-5.26,1.7-15.81V717q-18,0-27.54,4.76t-12.92,11.73q-3.4,7-6.46,19.55-3.06,13.61-6.29,20.91a32.52,32.52,0,0,1-10.37,12.75,309.92,309.92,0,0,0-41.48-2.38q-1.71-5.1-1.7-14.62,8.84-.68,13.94-4.42a26.89,26.89,0,0,0,7.82-8.67,109.44,109.44,0,0,0,6.12-14.11,82.57,82.57,0,0,1,6.12-13.26,31.12,31.12,0,0,1,9.69-9.52q6.63-4.41,17.85-6.8-23.46-4.08-36-17.17t-12.58-33.15q0-22.44,17.17-35.87T1694,613.32l17,.34q14.28.69,25.16.68,21.07,0,34.68-.68a65.72,65.72,0,0,1-1.36,14.62q-12.24.69-16.32,5.27t-4.08,18.87V746.6Q1749.09,760.88,1753.17,765.47Zm-37.06-64.09V630a123.87,123.87,0,0,0-21.42-2q-20.75,0-29.58,8.67t-8.84,24.31q0,20.75,13.26,31.11t34.34,10.37Q1712.36,702.4,1716.11,701.38Z"/>
    <path d="M1990.82,657.86a42,42,0,0,1-16.66,3.06q-.67-16.32-8.67-24.14t-25-7.82h-15V745.58q0,10.54,1.87,15.47a11.76,11.76,0,0,0,6.8,7q4.93,2,15.13,2.72,1.7,4.08,1.7,14.28-25.17-.67-41.14-.68-19.73,0-42.16.68,0-10.2,1.7-14.28,10.2-.68,15.47-2.72a12.31,12.31,0,0,0,7.31-7.14q2-5.1,2-15.3V629h-13.94q-13.6,0-20.91,3.57a23.11,23.11,0,0,0-10.71,10q-3.4,6.47-5.78,18.36-10.87,0-16-3.06a205.18,205.18,0,0,0,5.1-44.2q17.68.69,77.86.68,61.2,0,78.54-.68Q1987.42,632,1990.82,657.86Z"/>
    <path d="M2182.92,698.15q20.4,11.4,20.4,36.55,0,22.78-17.68,36.21t-54.4,13.43q-50.67,0-84,.68,0-10.53,1.7-15.3,8.16-.68,12.58-2.72a12,12,0,0,0,6.29-7.48q1.88-5.43,1.87-16.32V653.78q0-9.85-1.87-15a12.12,12.12,0,0,0-6.12-7.14q-4.24-2-12.41-2.72-1.7-5.1-1.7-15.3,17.67.69,42.5.68,20.73,0,39.78-.68,0,9.87-1.7,15.3-15,.69-21.08,6.8t-6.12,22.1v29.92q11.55-1,22.44-1Q2162.52,686.76,2182.92,698.15Zm-15.64,41.31q0-19.38-14.79-27.88t-35.53-8.5q-5.1,0-16,.68v40.46q0,15.3,5.1,20.23t19.38,4.93Q2167.28,769.38,2167.28,739.46Z"/>
  </g>
</svg>
